<?xml version="1.0" encoding="UTF-8" standalone="no"?>
<!-- Created with Inkscape (http://www.inkscape.org/) -->

<svg
   version="1.1"
   id="svg208"
   width="2417.8909"
   height="1672.7498"
   viewBox="0 0 2417.8909 1672.7498"
   xmlns="http://www.w3.org/2000/svg"
   xmlns:svg="http://www.w3.org/2000/svg">
  <defs
     id="defs212" />
  <g
     id="g214"
     transform="translate(-135.40377,-113.89335)">
    <path
       style="fill:#000000;stroke-width:1.33333"
       d="m 1918.7898,1785.535 c -5.5,-0.5344 -13.3,-1.6172 -17.3333,-2.4062 -4.0333,-0.789 -10.6333,-1.8024 -14.6667,-2.2518 -4.0333,-0.4495 -11.8333,-1.6624 -17.3333,-2.6952 -5.5,-1.033 -15.1,-2.527 -21.3333,-3.3202 -6.2334,-0.7932 -16.7334,-2.7054 -23.3334,-4.2494 -6.6,-1.544 -17.1,-4.1532 -23.3333,-5.7982 -6.2333,-1.645 -16.7333,-4.6253 -23.3333,-6.6228 -6.6,-1.9976 -17.8942,-5.3225 -25.0982,-7.3889 -7.2038,-2.0663 -20.7038,-5.6257 -30,-7.9097 -9.296,-2.284 -20.2018,-5.0243 -24.2352,-6.0895 -4.0333,-1.0652 -15.1333,-3.7541 -24.6666,-5.9755 -9.5334,-2.2214 -22.1334,-5.261 -28,-6.7548 -5.8667,-1.4938 -14.2667,-3.8264 -18.6667,-5.1836 -4.4,-1.357 -15.2,-4.0946 -24,-6.0836 -8.8,-1.9888 -25.6,-6.8124 -37.3333,-10.7192 -11.7334,-3.9066 -27.3334,-8.0709 -34.6667,-9.2538 -7.3333,-1.183 -16.0333,-2.972 -19.3333,-3.9759 -3.3,-1.0039 -11.1,-2.4512 -17.3334,-3.2164 -6.2333,-0.7652 -15.2333,-1.9537 -20,-2.6412 -4.7666,-0.6876 -14.6666,-1.6653 -22,-2.1729 -7.3333,-0.5076 -15.2707,-1.7174 -17.6386,-2.6884 -2.368,-0.971 -10.468,-2.4183 -18,-3.2163 -7.5321,-0.798 -19.3947,-2.0283 -26.3613,-2.734 -6.9667,-0.7057 -24.0667,-2.2105 -38,-3.344 -13.9334,-1.1335 -30.5684,-2.6291 -36.9668,-3.3235 -6.3983,-0.6944 -27.0983,-1.9069 -46,-2.6944 -18.9016,-0.7874 -37.6666,-1.9966 -41.6999,-2.687 -4.0333,-0.6904 -34.6333,-1.845 -68,-2.5655 -33.3667,-0.7207 -71.4667,-1.9017 -84.6666,-2.6247 -13.2,-0.7229 -38.4,-1.9297 -56,-2.6818 -17.6,-0.752 -33.80003,-1.6695 -36.00003,-2.0387 -2.2,-0.3693 -40.6,-0.7544 -85.33333,-0.856 -53.40936,-0.1213 -86.59769,0.3469 -96.66667,1.3639 -8.43333,0.8516 -28.23333,1.7697 -43.99999,2.0401 -15.76667,0.2704 -47.26667,1.4236 -70,2.5627 -22.73334,1.139 -48.23328,2.7068 -56.66668,3.4838 -8.4333,0.777 -20.7333,2.3483 -27.3333,3.4916 -6.6,1.1434 -24.6,3.8171 -40,5.9416 -15.4,2.1246 -35.8,5.1584 -45.3333,6.742 -9.5334,1.5836 -21.2334,3.0487 -26,3.2556 -4.7667,0.207 -12.8668,1.3543 -18.0001,2.5496 -5.1334,1.1952 -17.1334,3.6202 -26.6667,5.3888 -9.5333,1.7686 -23.0333,4.4499 -30,5.9584 -6.9667,1.5087 -15.9667,3.6448 -20,4.7472 -4.0333,1.1024 -11.5333,3.5819 -16.6667,5.51 -5.1333,1.9282 -12.3333,4.883 -16,6.5663 -3.6666,1.6833 -16.2925,5.5008 -28.0575,8.4833 -11.765,2.9826 -22.675,5.4228 -24.2445,5.4228 -1.5694,0 -9.9435,2.6087 -18.6091,5.797 -8.6655,3.1884 -22.3555,7.9373 -30.4222,10.5532 -8.0667,2.616 -21.2667,7.9062 -29.3333,11.7562 -8.0667,3.85 -16.3626,8.1746 -18.4353,9.6103 -2.0728,1.4356 -5.969,3.1064 -8.6582,3.7129 -2.8219,0.6364 -7.4303,0.5463 -10.898,-0.2133 -3.3047,-0.7239 -12.3085,-5.0437 -20.0085,-9.5996 -8.544,-5.0552 -17.0632,-11.4011 -21.8601,-16.2833 -4.323,-4.4 -10.0951,-11 -12.827,-14.6667 -2.7318,-3.6667 -5.3408,-8.2555 -5.7978,-10.1973 -0.4571,-1.9419 -0.2253,-6.7246 0.515,-10.6282 0.7403,-3.9034 3.2173,-12.2146 5.5046,-18.4693 2.2872,-6.2545 7.2798,-17.6719 11.0946,-25.3719 3.8147,-7.7 10.9918,-19.4 15.949,-26 4.9572,-6.6 11.3197,-15.9 14.1389,-20.6666 2.8215,-4.7707 11.7911,-15.5596 19.9527,-24 8.1548,-8.4334 15.6558,-16.8872 16.6689,-18.7864 1.0131,-1.8991 5.9263,-6.7574 10.9183,-10.796 4.9919,-4.0388 12.9762,-9.9396 17.7429,-13.1132 4.7666,-3.1735 11.0443,-7.782 13.9503,-10.2412 2.906,-2.4592 8.606,-6.0198 12.6667,-7.9123 4.0606,-1.8925 16.383,-7.8556 27.383,-13.2512 11,-5.3957 23.9,-10.7213 28.6666,-11.8349 4.7667,-1.1136 13.4667,-3.8443 19.3334,-6.0682 5.8666,-2.2238 16.9666,-5.4726 24.6666,-7.2196 7.7,-1.7469 17.6,-3.552 22,-4.0113 4.4,-0.4595 16.1,-2.5715 26,-4.6935 9.9,-2.1221 21,-4.7494 24.6667,-5.8386 3.6667,-1.0894 11.7667,-3.5335 18,-5.4316 6.2333,-1.8982 15.8333,-4.9626 21.3334,-6.8099 5.5,-1.8472 21.5389,-9.0773 35.642,-16.0668 22.1263,-10.9659 27.2537,-14.1169 37.3973,-22.9835 6.4655,-5.6513 15.4284,-13.0872 19.9176,-16.524 4.4892,-3.4368 10.5408,-9.7368 13.4479,-14 2.9071,-4.2632 7.8035,-10.598 10.8808,-14.0773 3.0773,-3.4793 8.5754,-10.8915 12.218,-16.4713 3.6425,-5.5799 10.7944,-17.8737 15.893,-27.3196 5.0986,-9.4459 9.2701,-17.4225 9.2701,-17.7257 0,-0.3033 2.5037,-4.6627 5.5638,-9.6877 4.0594,-6.666 7.2888,-15.0393 11.9438,-30.9689 3.50896,-12.008 6.70524,-22.158 7.10283,-22.5556 0.39759,-0.3975 1.02827,-0.4174 1.40152,-0.044 0.37325,0.3732 3.15961,8.1232 6.19192,17.2222 3.03231,9.099 8.45931,24.6436 12.06,34.5436 3.60068,9.9 9.69681,23.7 13.54695,30.6666 3.85013,6.9667 9.18976,17.32 11.86584,23.0075 2.67606,5.6873 6.54357,12.5301 8.59445,15.2061 2.05088,2.676 5.05079,7.0227 6.66648,9.6594 1.61569,2.6365 4.16551,7.2028 5.66625,10.1472 1.50076,2.9442 9.7658,14.0236 18.36678,24.6204 8.60097,10.5969 19.87815,23.4878 25.06041,28.6466 5.18225,5.1587 15.69528,15.125 23.36228,22.1471 7.667,7.0221 17.35054,14.9395 21.51898,17.594 4.16844,2.6545 12.56844,8.7928 18.66667,13.6405 6.09823,4.8479 15.58768,10.9424 21.08768,13.5435 5.5,2.6011 13.9,6.5632 18.66667,8.8047 4.76666,2.2414 13.63553,5.77 19.70858,7.8413 6.07306,2.0713 15.37306,5.5604 20.66667,7.7533 5.29361,2.1931 17.42475,6.4851 26.95808,9.5379 9.53333,3.0529 21.83333,6.5939 27.33333,7.8689 5.5,1.275 16,3.935 23.33334,5.9108 7.33329,1.976 17.83329,4.7734 23.33329,6.2162 5.5,1.4429 15.0633,3.799 21.2517,5.236 6.1884,1.4368 16.9884,3.1518 24,3.811 7.0116,0.6592 26.2483,2.4468 42.7483,3.9723 16.5,1.5255 36.6,3.4205 44.6667,4.2113 8.0666,0.7908 20.6666,1.9926 28,2.6707 7.3333,0.678 19.3333,1.8571 26.6666,2.62 7.3334,0.7629 28.0334,2.2496 46,3.3036 17.9667,1.054 40.7667,2.5264 50.6667,3.2719 9.9,0.7456 23.1,1.9718 29.3333,2.7252 6.2334,0.7533 20.9334,1.9349 32.6667,2.626 11.7333,0.6909 33.9333,2.5028 49.3333,4.0265 15.4,1.5236 36.1,3.7047 46,4.8468 9.9,1.142 23.1,2.8849 29.3333,3.8729 6.2334,0.988 15.5334,2.8142 20.6667,4.0582 5.1333,1.244 17.1333,4.6345 26.6667,7.5345 9.5333,2.9001 22.0204,6.7268 27.7489,8.5036 5.7287,1.7769 11.5577,3.2308 12.9535,3.2308 1.3957,0 5.1086,0.8392 8.251,1.8649 3.1423,1.0258 11.7132,3.4895 19.0466,5.4752 7.3333,1.9856 19.0333,5.2935 26,7.3508 6.9666,2.0574 17.1666,5.6428 22.6666,7.9676 5.5,2.3248 15.1,6.0298 21.3334,8.2331 6.2333,2.2035 12.5333,4.7415 14,5.6403 1.4666,0.8986 6.2873,2.9317 10.7126,4.5178 4.4252,1.5862 14.3252,4.6952 22,6.9088 7.6747,2.2138 15.158,4.0287 16.6295,4.0332 1.4715,0 12.2715,2.4767 24,5.4936 11.7285,3.0171 25.2245,6.2415 29.9912,7.1655 4.7667,0.924 14.0667,2.9348 20.6667,4.4684 6.6,1.5336 21.3,5.1295 32.6666,7.9909 11.3667,2.8615 26.6667,6.4687 34,8.016 7.3334,1.5474 18.9976,3.7466 25.9207,4.8874 6.9229,1.1406 23.1229,2.6454 36,3.3441 14.7445,0.7999 29.5832,0.8039 40.0793,0.013 9.1667,-0.6926 21.7667,-1.626 28,-2.0742 6.2334,-0.4482 17.0334,-1.6828 24,-2.7438 6.9667,-1.0608 16.5667,-2.8013 21.3334,-3.8676 4.7666,-1.0662 11.6666,-2.5346 15.3333,-3.263 3.6667,-0.7283 9.9667,-1.9892 14,-2.8019 4.0333,-0.8128 16.6333,-3.5688 28,-6.1245 11.3667,-2.5559 23.9667,-5.7836 28,-7.173 4.0333,-1.3893 17.2333,-6.4838 29.3333,-11.3212 12.1,-4.8373 25,-10.0989 28.6667,-11.6925 3.6667,-1.5937 8.9383,-4.2859 11.7148,-5.9827 2.7764,-1.6966 11.6837,-6.3552 19.7941,-10.3521 8.1103,-3.9969 18.1828,-9.3549 22.3835,-11.9067 4.2005,-2.5516 8.3432,-6.1885 9.2059,-8.0817 0.8626,-1.8933 1.5684,-4.0141 1.5684,-4.7131 0,-0.6988 -2.0778,-1.2705 -4.6174,-1.2705 -2.5394,0 -7.4894,1.1275 -11,2.5056 -3.5104,1.3781 -13.2826,3.5 -21.716,4.7152 -8.4333,1.2153 -21.3333,3.3251 -28.6666,4.6884 -7.3334,1.3633 -22.3334,4.3363 -33.3334,6.6065 -11,2.2703 -23.3,4.143 -27.3333,4.1616 -4.0333,0.019 -15.4333,1.2864 -25.3333,2.8172 -14.0659,2.1752 -26.4512,2.9159 -56.6667,3.3891 -21.2667,0.3331 -44.9667,0 -52.6667,-0.728 -7.7,-0.7336 -23.9,-2.2433 -36,-3.3549 -12.1,-1.1116 -25.3,-2.6224 -29.3333,-3.3575 -4.0333,-0.7349 -16.3333,-2.2949 -27.3333,-3.4667 -11,-1.1718 -22.5488,-2.6981 -25.664,-3.3918 -3.1151,-0.6938 -9.4151,-1.8199 -14,-2.5026 -4.5848,-0.6825 -14.3286,-2.5202 -21.6528,-4.0838 -7.3243,-1.5636 -16.2236,-4.3028 -19.7763,-6.0872 -3.5527,-1.7844 -7.2367,-3.2444 -8.1865,-3.2444 -0.95,0 -2.4742,-0.9 -3.3871,-2 -0.9129,-1.1 -3.0131,-2 -4.6671,-2 -1.654,0 -5.3305,-0.9675 -8.1701,-2.1499 -2.8395,-1.1824 -5.4628,-2.5919 -5.8295,-3.1321 -0.3666,-0.5403 -4.7704,-2.6135 -9.7862,-4.6071 -5.0158,-1.9936 -14.9158,-7.0663 -22,-11.2728 -7.0842,-4.2064 -17.5564,-9.6857 -23.2715,-12.1761 -5.7152,-2.4904 -11.0387,-5.3082 -11.83,-6.2618 -0.7913,-0.9534 -2.0017,-1.7336 -2.6899,-1.7336 -0.6881,0 -9.1646,-4.493 -18.8368,-9.9845 -9.672,-5.4913 -20.7362,-12.5724 -24.5872,-15.7356 -3.8508,-3.1631 -11.6508,-8.3825 -17.3333,-11.5988 -5.6824,-3.2163 -14.2317,-8.9488 -18.9984,-12.7391 -4.7667,-3.7901 -11.9667,-9.0378 -16,-11.6614 -4.0333,-2.6236 -11.5333,-7.7748 -16.6667,-11.4472 -5.1333,-3.6726 -13.1238,-8.8644 -17.7568,-11.5376 -4.6328,-2.6732 -11.74,-7.5618 -15.7937,-10.8636 -4.0536,-3.3018 -10.2503,-7.4498 -13.7701,-9.2176 -3.52,-1.768 -6.7307,-3.2146 -7.135,-3.2146 -0.4041,0 -4.318,-2.1 -8.6973,-4.6666 -4.3793,-2.5667 -8.8221,-4.6667 -9.8728,-4.6667 -1.0508,0 -4.6269,-1.4444 -7.9471,-3.2097 -3.3201,-1.7654 -13.1594,-5.5918 -21.8652,-8.5032 -8.7057,-2.9114 -20.6286,-6.8136 -26.4953,-8.6715 -5.8667,-1.8579 -12.7667,-3.8007 -15.3333,-4.3173 -2.5667,-0.5168 -5.2667,-1.3848 -6,-1.9292 -0.7334,-0.5443 -5.3972,-2.0678 -10.3642,-3.3856 -8.1352,-2.1583 -13.027,-2.3087 -49.3332,-1.5162 -22.1665,0.484 -44.338,1.2578 -49.2701,1.7196 -4.9321,0.4618 -8.6512,1.3514 -8.2646,1.977 0.3866,0.6254 -2.028,0.7629 -5.3658,0.3054 -3.7396,-0.5125 -6.0688,-0.3158 -6.0688,0.5124 0,0.7392 -2.307,1.7131 -5.1267,2.1639 -2.8197,0.4509 -8.3697,1.8015 -12.3333,3.0012 -3.9637,1.1997 -13.4476,4.2696 -21.0754,6.8219 -7.6278,2.5524 -16.083,6.2446 -18.7894,8.2052 -2.7064,1.9605 -7.5655,4.7318 -10.7979,6.1585 -3.2325,1.4267 -6.1773,2.9493 -6.5439,3.3837 -0.3667,0.4344 -6.0667,3.8948 -12.6667,7.6896 -8.8344,5.0798 -16.0783,10.8607 -27.4597,21.9138 -8.5028,8.2576 -16.9028,17.161 -18.6666,19.7856 -1.7639,2.6244 -6.2,8.7744 -9.8581,13.6666 -3.658,4.8922 -7.6066,8.895 -8.7747,8.895 -1.168,0 -2.88,-1.4134 -3.8046,-3.1408 -1.0645,-1.9892 -1.4633,-6.2672 -1.0874,-11.6667 0.3264,-4.6892 1.6556,-13.6259 2.9538,-19.8592 1.2981,-6.2333 2.7934,-12.2333 3.3228,-13.3333 0.5293,-1.1 1.7227,-5.3 2.6519,-9.3334 0.9291,-4.0333 2.4309,-8.5333 3.3371,-10 0.9063,-1.4666 2.4294,-5.0666 3.3846,-8 0.9552,-2.9333 4.041,-10.1333 6.8573,-16 2.8164,-5.8666 5.1258,-11.5788 5.1321,-12.6937 0.01,-1.1148 5.3124,-11.6148 11.7913,-23.3333 6.4789,-11.7184 14.1289,-25.0342 17,-29.5904 2.8711,-4.5563 9.3817,-14.4563 14.4679,-22 5.0863,-7.5438 12.2329,-17.6159 15.8814,-22.3826 3.6485,-4.7666 7.4535,-9.5666 8.4554,-10.6666 1.002,-1.1 4.6554,-5.7263 8.1186,-10.2806 3.4633,-4.5543 10.3142,-12.9997 15.2243,-18.7676 4.91,-5.7679 15.71,-16.8069 24,-24.5313 8.2899,-7.7243 17.4726,-15.265 20.4059,-16.7571 2.9334,-1.4922 6.5026,-4.0058 7.9316,-5.5859 1.4291,-1.5802 6.2291,-5.0346 10.6667,-7.6766 4.4376,-2.6421 11.9684,-7.3269 16.7351,-10.4109 4.7666,-3.0839 12.1344,-7.1933 16.3728,-9.1319 4.2384,-1.9387 7.9308,-3.5248 8.2052,-3.5248 0.2745,0 4.0974,-2.0339 8.4954,-4.5198 4.3979,-2.4858 10.3056,-5.264 13.128,-6.1737 2.8226,-0.9097 5.7319,-2.1 6.4652,-2.645 0.7334,-0.5451 6.4334,-3.1051 12.6667,-5.6891 6.2333,-2.5839 16.4106,-6.8598 22.6164,-9.5019 6.2056,-2.6421 11.8149,-4.8038 12.465,-4.8038 0.6503,0 3.0728,-0.8583 5.3838,-1.9073 2.3108,-1.0491 13.2014,-4.8981 24.2014,-8.5534 11,-3.6553 29.0588,-9.397 40.1307,-12.7593 11.0719,-3.3624 21.1219,-6.1134 22.3333,-6.1134 1.2115,0 2.2027,-0.507 2.2027,-1.1266 0,-0.6197 -1.05,-2.0516 -2.3333,-3.1819 -1.2834,-1.1304 -5.9334,-4.0019 -10.3334,-6.3811 -4.4,-2.3793 -9.8,-5.186 -12,-6.2372 -2.2,-1.0513 -5.1738,-2.5552 -6.6085,-3.3421 -1.4348,-0.787 -8.3333,-2.8484 -15.3303,-4.5809 -10.1513,-2.5137 -16.2953,-3.1502 -30.4094,-3.1502 -9.7284,0 -18.7298,0.5421 -20.0032,1.2047 -1.2734,0.6626 -9.1668,1.8875 -17.5411,2.722 -8.3743,0.8346 -19.1742,2.7531 -24,4.2635 -4.8257,1.5104 -12.6477,4.254 -17.3821,6.0969 -4.7345,1.843 -11.3345,5.6062 -14.6667,8.3628 -3.3323,2.7566 -10.8801,7.4881 -16.7731,10.5144 -5.8929,3.0263 -12.0229,5.5024 -13.6221,5.5024 -1.5993,0 -6.0778,-2.8072 -9.9523,-6.2382 -3.8745,-3.431 -8.6778,-8.381 -10.6741,-11 -1.9962,-2.619 -3.6462,-6.042 -3.6666,-7.6066 -0.022,-1.695 2.0896,-4.6592 5.2243,-7.3334 2.8938,-2.4686 9.6438,-7.9669 15,-12.2182 5.3562,-4.2514 14.2386,-10.5971 19.7386,-14.1015 5.5,-3.5044 13.3,-8.4522 17.3333,-10.995 4.0334,-2.5429 13.3334,-6.8125 20.6667,-9.4881 7.3333,-2.6757 19.0333,-6.8495 26,-9.2752 l 12.6666,-4.4105 34.6667,0.081 c 31.4439,0.074 35.7823,0.3622 46.6667,3.1029 6.6,1.662 16.8,4.5669 22.6666,6.4554 5.8667,1.8886 16.0667,5.9592 22.6667,9.046 6.6,3.0867 18.0331,10.139 25.4068,15.6717 7.7019,5.7789 15.0183,12.4946 17.1939,15.7822 2.0829,3.1475 6.341,8.4537 9.4626,11.7916 3.1216,3.3379 8.4119,11.3442 11.7563,17.7917 3.3443,6.4476 6.4373,13.6476 6.8732,16 0.7007,3.7816 0.3588,4.4439 -2.9501,5.7157 -2.0586,0.7911 -6.7427,2.5338 -10.4094,3.8725 -3.6666,1.3387 -11.7666,3.7629 -18,5.387 -6.2333,1.6242 -15.8333,4.5698 -21.3333,6.5459 -5.5,1.976 -12.55,4.5256 -15.6667,5.6658 -3.1166,1.1402 -5.6666,2.4743 -5.6666,2.9646 0,0.4904 -1.05,0.9753 -2.3334,1.0776 -1.2833,0.1024 -8.0333,2.093 -15,4.4237 -6.9666,2.3307 -13.2666,4.6965 -14,5.2573 -0.7333,0.5607 -3.7304,1.7928 -6.66,2.7379 -2.9297,0.9451 -7.969,3.1233 -11.1986,4.8404 -3.2295,1.7172 -6.8326,3.1425 -8.0066,3.1674 -1.1741,0.025 -4.5348,1.2045 -7.4681,2.6214 -2.9333,1.4169 -6.06,2.5965 -6.948,2.6214 -0.8881,0.025 -2.9264,1.3953 -4.5295,3.0453 -1.603,1.65 -2.491,2.25 -1.9733,1.3333 0.5179,-0.9167 0.5207,-1.6667 0,-1.6667 -0.5143,0 -6.0997,2.1953 -12.412,4.8783 -6.3123,2.6831 -12.9769,5.9044 -14.8103,7.1584 -1.8333,1.2541 -4.8333,2.7397 -6.6666,3.3013 -1.8334,0.5617 -4.5168,1.8404 -5.9634,2.8416 -1.4465,1.0012 -3.5749,1.8204 -4.7298,1.8204 -1.155,0 -8.0715,3.6838 -15.37,8.1862 -7.2985,4.5025 -17.1701,10.2877 -21.9368,12.8563 -4.7667,2.5684 -11.0667,6.3928 -14,8.4986 -2.9333,2.1057 -8.2721,5.9365 -11.864,8.5127 -3.5918,2.5763 -10.7443,8.4181 -15.8944,12.9819 -5.1501,4.5637 -10.3404,9.1977 -11.5341,10.2977 -1.1937,1.1 -6.3412,5.5582 -11.4389,9.9072 -5.0977,4.349 -14.9153,13.649 -21.8168,20.6668 -6.9016,7.0176 -16.015,16.7822 -20.2522,21.6992 -4.2372,4.917 -10.7405,13.4398 -14.4518,18.9398 -3.7113,5.4999 -6.7478,10.3142 -6.7478,10.6982 0,0.384 1.35,0.1293 3,-0.5659 1.65,-0.6953 12.208,-3.4192 23.4622,-6.0532 11.2543,-2.6339 25.9543,-5.3575 32.6667,-6.0521 6.7124,-0.6948 16.6658,-2.5395 22.1185,-4.0995 8.9686,-2.5659 11.8934,-2.752 30.6667,-1.9516 11.4139,0.4865 27.0526,1.4079 34.7525,2.0475 7.7,0.6394 22.7,2.1481 33.3334,3.3524 10.6333,1.2042 22.8514,3.0985 27.1513,4.2094 4.2999,1.111 14.7647,4.7359 23.2549,8.0554 8.4904,3.3196 20.0314,8.6854 25.6464,11.9242 5.6152,3.2388 10.5428,5.8888 10.9504,5.8888 0.4075,0 8.1486,4.5911 17.2023,10.2024 9.0537,5.6114 18.2613,11.6636 20.4613,13.4498 2.2,1.786 7.3699,5.4449 11.4886,8.1309 4.1186,2.686 12.5186,8.2423 18.6666,12.3473 6.148,4.1051 15.6782,11.026 21.1782,15.3799 5.5,4.3537 13,9.9887 16.6666,12.522 3.6667,2.5332 9.3667,6.7392 12.6667,9.3467 3.3,2.6073 12.6,8.6808 20.6667,13.4965 8.0666,4.8159 16.7666,9.8301 19.3333,11.1429 2.5667,1.3128 8.8667,4.4338 14,6.9356 5.1333,2.5019 10.8333,5.4391 12.6667,6.5271 1.8333,1.0881 6.0326,3.1927 9.3318,4.6768 3.2992,1.4843 7.7992,4.0348 10,5.668 2.2008,1.6333 7.9015,4.6571 12.6682,6.7195 4.7666,2.0625 11.6666,5.1337 15.3333,6.8249 3.6667,1.6913 12.3667,5.4744 19.3333,8.4069 6.9667,2.9326 16.7292,6.5823 21.6947,8.1107 4.9653,1.5284 9.838,2.7788 10.828,2.7788 0.9901,0 8.6275,2.0883 16.972,4.6405 8.3447,2.5523 16.372,5.1903 17.8387,5.8623 1.4666,0.672 6.2666,2.4545 10.6666,3.9611 4.4,1.5066 11.9,3.3616 16.6667,4.1222 4.7667,0.7607 10.7667,2.0054 13.3333,2.7662 2.5667,0.7606 16.0667,2.8216 30,4.5797 13.9334,1.7581 39.7334,3.8371 57.3334,4.6199 17.6,0.7826 41.6,1.7876 53.3333,2.233 14.4712,0.5494 24.1211,0.2851 30,-0.8217 4.7667,-0.8975 20.3667,-2.0937 34.6667,-2.6584 14.3,-0.5647 34.5774,-1.9603 45.0609,-3.1015 10.4836,-1.1412 20.9836,-2.6884 23.3333,-3.4382 2.3499,-0.7499 12.6724,-2.5699 22.9391,-4.0443 10.2667,-1.4745 24.6667,-3.8905 32,-5.3689 7.3333,-1.4784 18.7333,-3.5911 25.3333,-4.6947 6.6,-1.1037 14.1,-2.9021 16.6667,-3.9964 2.5667,-1.0944 8.5667,-2.8712 13.3333,-3.9485 4.7667,-1.0774 12.5667,-2.8982 17.3334,-4.046 4.7666,-1.148 13.7666,-3.309 20,-4.802 6.2333,-1.4931 15.8333,-5.013 21.3333,-7.822 5.5,-2.8091 16.0627,-7.2171 23.4725,-9.7958 7.4099,-2.5785 18.3466,-7.1388 24.3038,-10.134 5.9572,-2.9952 11.4445,-5.4458 12.1941,-5.4458 0.7496,0 1.3629,0.4929 1.3629,1.0954 0,0.6024 -3.3286,5.2524 -7.397,10.3334 -4.0684,5.0808 -9.1987,11.9378 -11.4004,15.2378 -2.2018,3.3 -7.6719,10.2 -12.1558,15.3334 -4.4838,5.1333 -15.4037,16.6105 -24.2662,25.5048 -8.8627,8.8944 -25.7139,25.9062 -37.4472,37.8042 -16.1176,16.3436 -24.7562,23.9334 -35.3334,31.0427 -7.7,5.1756 -16.4,11.3431 -19.3333,13.7055 -2.9333,2.3624 -8.8677,6.166 -13.1877,8.4524 -4.3199,2.2864 -8.697,4.157 -9.7268,4.157 -1.0299,0 -6.44,3.15 -12.0223,7 -5.5824,3.85 -13.2053,8.6791 -16.9399,10.7313 -3.7345,2.0523 -12.79,6.329 -20.1233,9.5038 -7.3333,3.1748 -20.2333,7.9198 -28.6667,10.5445 -8.4333,2.6248 -22.2333,6.8432 -30.6666,9.3743 -8.4334,2.5312 -20.1334,5.838 -26,7.3484 -5.8667,1.5105 -16.6667,4.2117 -24,6.0025 -7.3334,1.7909 -16.0334,3.6503 -19.3334,4.132 -3.3,0.4816 -11.7,2.5971 -18.6666,4.7011 -6.9667,2.1041 -18.6908,4.48 -26.0538,5.28 -7.3629,0.8 -16.6629,2.0486 -20.6666,2.7749 -4.0038,0.7263 -11.4796,1.8837 -16.613,2.572 -5.1333,0.6883 -23.4333,1.1939 -40.6666,1.1235 -17.2334,-0.071 -35.8334,-0.5652 -41.3334,-1.0996 z M 1882.18,1551.8796 c -3.0836,-2.7008 -3.5083,-4.2634 -4.2567,-15.6666 -0.4573,-6.9667 -1.2916,-13.2667 -1.854,-14 -0.5623,-0.7334 -1.4584,-4.9334 -1.9913,-9.3334 -0.5328,-4.4 -2.6991,-14 -4.8139,-21.3333 -2.1147,-7.3333 -5.8679,-17.5333 -8.3403,-22.6667 -2.4725,-5.1333 -6.3425,-13.2632 -8.6001,-18.0662 -2.3383,-4.9748 -7.9984,-13.1063 -13.1527,-18.8952 -4.9762,-5.5892 -9.768,-10.2095 -10.6482,-10.2671 -0.8803,-0.057 -2.0803,-0.8755 -2.6667,-1.8173 -0.5864,-0.9419 -4.3663,-4.0712 -8.3996,-6.9542 -4.0333,-2.8829 -7.7619,-5.9206 -8.2857,-6.7506 -0.5239,-0.83 -4.7239,-3.2039 -9.3334,-5.2754 -6.9257,-3.1122 -10.753,-3.8724 -22.0422,-4.378 -7.8754,-0.3526 -17.193,0.067 -22,0.9914 -4.5863,0.8817 -10.5887,3.0688 -13.3387,4.8601 -4.0875,2.6625 -4.9967,4.0444 -4.9817,7.5715 0.013,2.3729 0.3798,5.6644 0.8221,7.3144 0.4421,1.65 1.6528,3 2.6903,3 1.0374,0 2.222,-1.05 2.6321,-2.3334 0.4101,-1.2833 1.3927,-3.6833 2.1835,-5.3333 0.8826,-1.8419 2.6374,-3 4.5457,-3 1.8321,0 5.2315,2.1235 8.2809,5.1729 3.1274,3.1274 6.0786,7.8998 7.4634,12.069 1.668,5.0218 2.1646,10.0778 1.8272,18.602 -0.4044,10.2142 -0.974,12.5413 -4.47,18.2642 -3,4.9111 -5.847,7.506 -11.3334,10.33 -6.1716,3.1768 -8.441,3.664 -14.3938,3.0895 -4.4874,-0.4331 -9.8414,-2.2395 -14.6667,-4.9483 -4.1797,-2.3464 -9.8293,-6.6645 -12.5545,-9.5957 -2.7252,-2.9313 -6.7838,-8.8437 -9.0191,-13.1385 -2.2352,-4.295 -5.31,-13.2204 -6.8328,-19.8344 -2.1883,-9.5039 -2.6344,-14.8896 -2.1279,-25.6848 0.3526,-7.5126 1.2991,-16.5632 2.1034,-20.1127 0.8042,-3.5495 3.1002,-9.4629 5.1021,-13.1411 2.002,-3.6781 6.36,-9.4902 9.6845,-12.9158 3.3246,-3.4256 7.7408,-7.3063 9.814,-8.6237 2.0731,-1.3174 8.0731,-4.1491 13.3334,-6.2927 8.8944,-3.6245 10.7925,-3.8977 27.1118,-3.902 13.7948,0 19.3556,0.5621 26,2.6449 4.6487,1.4572 9.3903,2.6572 10.537,2.6667 1.1466,0.01 7.1466,2.5706 13.3333,5.6914 6.1867,3.1208 13.9485,7.456 17.2485,9.6338 3.3,2.1777 10.2614,7.7185 15.4698,12.3129 l 9.4697,8.3533 -0.5689,-6.987 c -0.3128,-3.843 -1.1242,-10.2474 -1.803,-14.2322 -0.6789,-3.9846 -1.2342,-9.4992 -1.2342,-12.2545 0,-2.7554 -0.5212,-5.3319 -1.1582,-5.7256 -0.637,-0.3937 -1.5505,-3.1692 -2.0301,-6.1678 -0.4795,-2.9986 -2.6583,-10.6079 -4.8417,-16.9096 -2.1835,-6.3017 -3.97,-12.8262 -3.97,-14.4989 0,-1.6727 -0.532,-3.37 -1.1822,-3.7719 -0.6502,-0.4018 -1.6044,-2.9872 -2.1202,-5.7453 -0.5159,-2.7581 -2.1388,-8.6148 -3.6064,-13.0148 -1.4676,-4.4 -8.4006,-19.7 -15.4066,-34 -7.0058,-14.3 -13.7652,-27.5 -15.0208,-29.3333 -1.2554,-1.8333 -3.8696,-6.2068 -5.8093,-9.7189 -1.9397,-3.512 -6.5995,-10.22 -10.3549,-14.9065 -4.9492,-6.176 -8.594,-9.2805 -13.2444,-11.2811 -3.529,-1.5181 -7.805,-2.7492 -9.5024,-2.7359 -1.6974,0.013 -5.7264,1.8134 -8.9535,4 -3.2269,2.1867 -6.3083,3.9757 -6.8473,3.9757 -0.5391,0 -4.7988,4.4196 -9.4662,9.8212 -4.6672,5.4017 -9.6858,11.4898 -11.1525,13.5291 -1.4667,2.0393 -5.2167,6.9919 -8.3333,11.0059 -3.1167,4.0139 -5.6667,7.74 -5.6667,8.2801 0,0.5402 -3,4.9954 -6.6667,9.9005 -3.6666,4.9052 -6.6666,9.491 -6.6666,10.1909 0,0.6998 -0.525,1.2723 -1.1667,1.2723 -0.6416,0 -1.5168,1.65 -1.9448,3.6667 -0.428,2.0167 -3.5031,7.7725 -6.8333,12.7906 -3.3304,5.0182 -6.0552,9.7255 -6.0552,10.4609 0,0.7352 -1.1299,2.9295 -2.5108,4.876 -1.3808,1.9466 -3.8654,6.5392 -5.5211,10.2058 -1.6557,3.6667 -5.3484,11.6516 -8.2059,17.7443 -2.8576,6.0926 -7.1642,15.3926 -9.5704,20.6666 -2.4061,5.274 -6.0342,14.9891 -8.0628,21.5891 -2.0284,6.6 -6.0178,18 -8.8654,25.3334 -2.8476,7.3333 -7.0191,17.8333 -9.27,23.3333 -2.2508,5.5 -4.9474,10.6495 -5.9923,11.4432 -1.0449,0.7937 -6.0189,2.2204 -11.0533,3.1704 -7.0223,1.3249 -9.828,1.3661 -12.0507,0.1765 -2.5748,-1.378 -2.8895,-2.6214 -2.8267,-11.1704 0.039,-5.2908 0.8815,-14.1197 1.8724,-19.6197 0.991,-5.5 3.0412,-15.4 4.5562,-22 1.5149,-6.6 3.6673,-16.0701 4.7832,-21.0447 1.1157,-4.9745 2.9337,-10.7947 4.0397,-12.9337 1.1061,-2.1391 2.0112,-4.72 2.0112,-5.7355 0,-1.0155 3.2924,-11.6953 7.3164,-23.7329 4.024,-12.0376 8.8567,-26.0865 10.7392,-31.2199 1.8827,-5.1333 4.048,-11.3903 4.812,-13.9044 0.764,-2.5142 3.9499,-8.5142 7.0799,-13.3334 3.1298,-4.8192 8.4953,-13.5622 11.9233,-19.4288 3.4279,-5.8667 6.7755,-11.5667 7.4388,-12.6667 0.6635,-1.1 5.2901,-8.5572 10.2816,-16.5715 4.9916,-8.0144 11.1755,-17.7108 13.7421,-21.5475 2.5667,-3.8368 9.4471,-12.8103 15.2898,-19.9411 5.8428,-7.1309 14.8428,-16.5341 20,-20.896 5.1573,-4.3619 11.0149,-8.7904 13.0168,-9.8411 2.002,-1.0506 9.5516,-2.919 16.7768,-4.152 11.125,-1.8984 14.2804,-1.9858 20.6036,-0.5707 4.1305,0.9243 10.9322,3.9455 15.2232,6.7617 4.2661,2.7999 10.0452,7.2322 12.8424,9.8496 2.7973,2.6175 5.9096,4.4429 6.9164,4.0566 1.2036,-0.4619 2.8118,1.4521 4.6964,5.5889 1.5762,3.4603 5.3938,9.06 8.4834,12.4439 3.0896,3.3839 6.63,7.77 7.8676,9.7469 1.2378,1.9768 5.0252,7.0011 8.4168,11.1651 3.3915,4.1639 9.9254,14.9327 14.5196,23.9306 4.5943,8.9979 9.5975,19.8736 11.1183,24.1682 1.5208,4.2946 4.8612,14.1084 7.4232,21.8084 2.5619,7.7 5.8759,18.2 7.3641,23.3333 1.4884,5.1334 3.0648,11.7334 3.5032,14.6667 0.4383,2.9333 1.3228,6.5333 1.9655,8 0.6427,1.4667 2.1365,7.1667 3.3196,12.6667 1.1832,5.5 2.9441,14.8 3.9132,20.6666 0.9691,5.8667 2.4232,13.0599 3.2315,15.985 0.8081,2.925 2.9456,14.625 4.7497,26 1.8041,11.3749 4.2252,29.6817 5.3803,40.6817 1.155,11 2.3632,25.7 2.6846,32.6667 0.3215,6.9666 0.9446,27.0666 1.3844,44.6666 0.4816,19.2627 0.2395,37.1979 -0.608,45.0588 -0.7744,7.1823 -2.3496,14.8796 -3.5004,17.1051 -1.1649,2.2525 -4.1029,4.8863 -6.6277,5.9412 -2.4944,1.0421 -6.0211,1.8949 -7.8371,1.8949 -1.816,0 -4.8432,-1.35 -6.727,-3 z m 76.0428,-6.9656 c -5.8119,-2.5909 -11.6619,-5.7016 -13,-6.9126 -1.3382,-1.211 -2.433,-3.5696 -2.433,-5.2416 0,-1.6719 -0.6,-4.618 -1.3333,-6.5467 -0.7333,-1.9288 -2.2383,-14.7179 -3.3443,-28.4201 -1.106,-13.7024 -2.6069,-32.4134 -3.335,-41.58 -0.7283,-9.1667 -1.9136,-26.2667 -2.634,-38 -0.7206,-11.7334 -1.6386,-23.4334 -2.0403,-26 -0.4017,-2.5667 -1.3305,-14.2667 -2.0641,-26 -0.7335,-11.7334 -2.1659,-28.8334 -3.1831,-38 -1.0171,-9.1667 -2.7529,-21.2348 -3.8572,-26.8181 -1.1044,-5.5833 -2.6071,-12.4833 -3.3395,-15.3334 -0.7324,-2.85 -2.0068,-10.8819 -2.8322,-17.8485 -0.8254,-6.9667 -2.3743,-19.8667 -3.4423,-28.6667 -1.0679,-8.8 -2.5411,-20.8 -3.2736,-26.6667 -0.7327,-5.8666 -2.3151,-14.8666 -3.5165,-20 -1.2015,-5.1333 -3.3235,-12.9333 -4.7158,-17.3333 -1.3922,-4.4 -2.8921,-11.7356 -3.3332,-16.3013 -0.5888,-6.0956 -0.3086,-8.897 1.0546,-10.5428 1.021,-1.2329 6.1373,-4.2473 11.3694,-6.6987 5.232,-2.4515 10.332,-4.4775 11.3334,-4.5024 1.0012,-0.025 4.2204,-1.2045 7.1537,-2.6215 2.9333,-1.4169 6.2333,-2.5987 7.3333,-2.6264 1.1,-0.028 3.8916,-1.2036 6.2036,-2.6134 2.312,-1.4097 6.212,-3.1748 8.6667,-3.9224 2.4547,-0.7475 8.5065,-2.8316 13.4487,-4.6313 4.942,-1.7996 14.542,-4.5953 21.3333,-6.2125 6.7912,-1.6173 14.1477,-3.5491 16.3477,-4.2928 2.2,-0.7438 15.7,-1.6526 30,-2.0196 16.6658,-0.4278 29.3508,-0.1114 35.3334,0.8814 5.1333,0.8518 12.9528,2.1027 17.3764,2.7797 4.4237,0.677 12.5237,2.6793 18,4.4494 5.4764,1.7701 14.9708,4.8191 21.0989,6.7755 6.1281,1.9564 12.4281,4.3376 14,5.2915 1.5719,0.9539 9.158,5.2672 16.858,9.5851 8.1473,4.5687 17.1648,10.9244 21.5704,15.2033 4.1637,4.0439 9.4067,8.7423 11.6508,10.4408 2.2441,1.6985 6.2361,6.9432 8.8711,11.6548 2.6348,4.7116 5.2994,8.881 5.9214,9.2654 0.6219,0.3844 3.2696,5.0397 5.8838,10.3452 2.6141,5.3055 5.9566,11.737 7.4277,14.2922 1.4712,2.5552 2.6748,5.9698 2.6748,7.588 0,1.6181 0.558,3.287 1.24,3.7085 0.682,0.4215 1.6241,4.2069 2.0936,8.412 0.4695,4.2051 1.4179,9.1456 2.1076,10.979 0.7849,2.0864 0.7751,10.4133 -0.027,22.2593 -0.9596,14.1826 -1.9657,20.4301 -4.0142,24.9269 -1.5036,3.3004 -2.7338,6.6785 -2.7338,7.5067 0,0.8282 -3.4313,6.0651 -7.6253,11.6375 -4.1939,5.5724 -10.0439,12.5011 -13,15.397 -2.956,2.8959 -8.6747,6.7582 -12.708,8.583 -4.0333,1.8248 -9.8343,4.4812 -12.8909,5.9031 -3.0567,1.422 -7.8567,2.9222 -10.6667,3.3338 -2.81,0.4117 -7.5379,1.5337 -10.5064,2.4933 -2.9684,0.9597 -9.7317,2.1719 -15.0295,2.694 -5.2978,0.522 -9.9545,1.4703 -10.3481,2.1072 -0.3937,0.637 -3.2304,1.1624 -6.3037,1.1677 -3.0735,0.01 -9.609,0.3892 -14.5236,0.8534 l -8.9355,0.844 3.7932,5.4799 c 2.0863,3.0138 5.6407,7.2798 7.8985,9.4798 2.2579,2.2 4.1219,4.5614 4.1423,5.2474 0.02,0.6861 1.1899,2.4861 2.5988,4 1.4089,1.514 5.0083,7.6702 7.9987,13.6805 2.9902,6.0104 6.2981,14.4104 7.3508,18.6667 1.0526,4.2564 3.0532,12.2388 4.4457,17.7388 1.3925,5.5 4.4963,14.6704 6.8975,20.3786 2.401,5.7084 6.4662,12.8932 9.0337,15.9663 2.5675,3.0731 8.1936,8.1527 12.5024,11.2879 7.5609,5.5017 8.1808,5.7005 17.7764,5.7005 5.4683,0 10.3132,-0.6 10.7664,-1.3333 0.4532,-0.7334 1.9384,-1.3334 3.3003,-1.3334 1.362,0 6.8765,-2.9853 12.2546,-6.634 5.6127,-3.8078 13.419,-10.8856 18.324,-16.6142 4.7,-5.4891 9.1367,-9.6148 9.8592,-9.1683 0.8182,0.5057 1.0195,7.1487 0.5338,17.6143 -0.5319,11.457 -1.6012,19.1556 -3.3615,24.1997 -1.4199,4.0687 -3.9353,10.0687 -5.59,13.3333 -1.6548,3.2647 -4.7572,8.1582 -6.8943,10.8742 -2.1372,2.7161 -7.0073,6.7192 -10.8226,8.896 -3.8152,2.1766 -10.7814,5.2838 -15.4803,6.9048 -7.602,2.6224 -10.1193,2.8474 -22.8424,2.0424 -9.9133,-0.6274 -17.0097,-1.888 -23.1369,-4.1104 -4.8608,-1.7631 -10.1818,-4.1467 -11.8242,-5.2967 -1.6425,-1.1501 -5.906,-4.9229 -9.4745,-8.3841 -3.5684,-3.4612 -8.1332,-8.6999 -10.1437,-11.6416 -2.0107,-2.9418 -5.7466,-9.2487 -8.302,-14.0154 -2.5554,-4.7666 -5.956,-12.2666 -7.557,-16.6666 -1.6009,-4.4 -3.4602,-9.2 -4.1316,-10.6667 -0.6714,-1.4667 -3.001,-6.8667 -5.1768,-12 -2.1756,-5.1333 -5.2998,-13.5333 -6.9424,-18.6667 -1.6426,-5.1333 -4.0978,-12.1833 -5.4558,-15.6666 -1.3582,-3.4834 -3.8192,-9.4806 -5.4692,-13.3272 -1.7576,-4.0975 -6.5564,-10.747 -11.5875,-16.056 -4.7231,-4.9842 -12.8904,-11.9946 -18.1497,-15.5787 -5.2594,-3.584 -13.095,-7.9999 -17.4126,-9.8129 -4.3176,-1.8131 -11.3478,-3.7306 -15.6228,-4.2611 -4.7937,-0.5949 -8.0529,-1.695 -8.504,-2.8706 -0.4022,-1.0484 0.3954,-4.0236 1.7726,-6.6116 1.3772,-2.5881 5.204,-6.6881 8.504,-9.1112 3.3,-2.4231 8.7,-5.6229 12,-7.1106 3.3,-1.4878 8.8636,-3.9272 12.3634,-5.4209 3.4999,-1.4938 12.1999,-4.2818 19.3334,-6.1957 9.7612,-2.619 19.5669,-3.937 39.6365,-5.3279 14.6667,-1.0164 30.7593,-2.778 35.7615,-3.9146 5.0022,-1.1365 11.9022,-3.6773 15.3333,-5.6462 3.4312,-1.9688 10.0465,-7.5066 14.7007,-12.3063 4.6542,-4.7996 9.6677,-11.0895 11.1412,-13.9777 2.1288,-4.1728 2.5377,-6.9164 1.9917,-13.3609 -0.378,-4.4605 -1.5349,-11.7099 -2.5708,-16.1099 -1.036,-4.4 -4.0029,-11.8573 -6.5932,-16.5718 -2.5901,-4.7144 -8.2468,-12.5883 -12.5703,-17.4976 -4.3234,-4.9092 -9.565,-9.9679 -11.648,-11.2415 -2.083,-1.2737 -5.683,-3.9744 -8,-6.0017 -2.317,-2.0273 -8.1128,-5.1593 -12.8794,-6.9599 -4.7667,-1.8007 -12.8667,-4.345 -18,-5.6541 -5.1334,-1.3091 -12.3334,-2.9542 -16,-3.6558 -3.6667,-0.7016 -15.3667,-1.3082 -26,-1.3478 -10.6334,-0.04 -22.3334,0.6351 -26,1.4996 -3.6667,0.8645 -10.8926,2.3875 -16.0575,3.3845 -5.1648,0.9969 -12.0648,3.0528 -15.3333,4.5687 -3.2684,1.5158 -8.3426,3.3554 -11.2759,4.0881 -2.9333,0.7327 -9.9833,4.0597 -15.6667,7.3933 l -10.3333,6.0611 v 8.3008 c 0,4.5654 1.1936,14.4272 2.6475,21.9152 1.4537,7.4879 3.2292,20.9879 3.9453,30 0.716,9.012 1.9277,18.5444 2.6927,21.1831 0.7649,2.6386 1.9834,12.8386 2.7077,22.6667 0.7244,9.828 2.2337,28.6691 3.354,41.8691 1.1203,13.2 2.6145,33.9 3.3205,46 0.706,12.1 1.8895,27.7 2.63,34.6666 0.7404,6.9667 1.7138,36.0667 2.163,64.6667 0.6966,44.3537 0.5313,52.3736 -1.1242,54.5404 -1.3748,1.7993 -4.041,2.6859 -9.1406,3.0393 -6.0106,0.4166 -8.9454,-0.2792 -17.767,-4.212 z m -911.4329,1.299 c 0,-0.3667 0.3,-0.6667 0.6667,-0.6667 0.3666,0 0.6666,0.3 0.6666,0.6667 0,0.3666 -0.3,0.6666 -0.6666,0.6666 -0.3667,0 -0.6667,-0.3 -0.6667,-0.6666 z m 443.5417,-8.6311 c -5.0187,-2.1407 -13.7187,-4.8921 -19.3334,-6.1143 -5.6146,-1.2221 -16.2084,-3.3788 -23.5417,-4.7925 -7.3333,-1.4139 -18.4333,-3.1689 -24.6666,-3.9003 -6.2334,-0.7312 -18.2671,-2.2068 -26.7417,-3.279 -8.4746,-1.0722 -23.6483,-1.9495 -33.7193,-1.9495 -10.0709,0 -23.8372,0.5599 -30.5916,1.244 -6.7544,0.6843 -16.9308,1.6093 -22.6141,2.0556 -5.6981,0.4476 -10.3333,0.2836 -10.3333,-0.3655 0,-0.6473 3.0572,-2.9224 6.7938,-5.0556 3.7366,-2.1332 8.0105,-4.5706 9.4975,-5.4166 1.4869,-0.8459 8.1797,-1.9398 14.8728,-2.4307 6.693,-0.4909 14.615,-1.7905 17.6044,-2.888 4.3117,-1.5829 9.9616,-1.8617 27.3333,-1.3487 12.044,0.3558 31.7982,1.2654 43.8982,2.0215 14.001,0.8748 25.3934,2.3316 31.3333,4.0065 5.1333,1.4478 13.5333,3.9359 18.6666,5.5295 5.1334,1.5936 9.9034,3.4413 10.6,4.106 0.6967,0.6648 2.0351,1.2087 2.9742,1.2087 0.9392,0 6.7541,2.3976 12.922,5.328 6.168,2.9304 11.5626,6.2356 11.9884,7.3449 0.4257,1.1092 0.2057,3.5117 -0.489,5.3387 -0.8429,2.217 -2.2716,3.3097 -4.2958,3.2856 -1.6683,-0.02 -7.1394,-1.7875 -12.158,-3.9283 z m -451.5417,-8.7023 c 0,-0.3666 0.3,-0.6666 0.6667,-0.6666 0.3666,0 0.6666,0.3 0.6666,0.6666 0,0.3667 -0.3,0.6667 -0.6666,0.6667 -0.3667,0 -0.6667,-0.3 -0.6667,-0.6667 z m 1.3575,-4.4056 c 0.013,-1.2436 1.853,-5.561 4.0883,-9.5944 2.2352,-4.0333 5.5794,-11.5333 7.4315,-16.6666 1.852,-5.1334 5.4807,-16.2334 8.0637,-24.6667 2.5831,-8.4333 5.9374,-22.5333 7.4541,-31.3333 1.7288,-10.0303 2.7229,-21.4723 2.6644,-30.6667 -0.051,-8.0667 -1.0936,-23.6667 -2.3163,-34.6667 -1.2227,-11 -2.5289,-21.0448 -2.9027,-22.3218 -0.3738,-1.2771 -0.9385,-3.9771 -1.255,-6.0001 -0.3164,-2.0229 -1.2513,-6.0781 -2.0774,-9.0114 -0.8261,-2.9333 -2.2752,-8.0333 -3.2204,-11.3333 -0.9451,-3.3 -2.0682,-8.4855 -2.4959,-11.5233 -0.4276,-3.0379 -3.8185,-13.8379 -7.5352,-24 -3.7168,-10.1622 -8.2063,-22.1449 -9.9768,-26.6283 -1.7705,-4.4833 -5.2109,-11.6833 -7.6452,-16 -2.4344,-4.3166 -5.7575,-10.5484 -7.3847,-13.8484 -1.6272,-3.3 -6.1476,-9.4629 -10.0453,-13.6954 -3.8976,-4.2324 -9.4151,-8.8824 -12.2609,-10.3333 -2.8458,-1.4509 -5.88171,-2.638 -6.74644,-2.638 -0.86473,0 -9.97887,7.95 -20.25363,17.6667 -10.27477,9.7166 -23.7123,23.9666 -29.86121,31.6666 -6.14889,7.7 -12.4148,16.1 -13.92421,18.6667 -1.50943,2.5667 -3.54227,6.7667 -4.51744,9.3333 -0.97516,2.5667 -2.89616,6.2985 -4.26888,8.2929 -1.37274,1.9945 -5.83595,10.3945 -9.91827,18.6667 -4.08231,8.2722 -8.26203,18.3404 -9.28824,22.3738 -1.02621,4.0333 -2.39436,8.5333 -3.04032,10 -0.64596,1.4666 -2.707,7.7666 -4.58008,14 -1.87309,6.2333 -4.05403,14.5924 -4.84653,18.5757 -0.79251,3.9833 -2.12208,8.0631 -2.95459,9.0663 -0.94833,1.1426 -1.73741,10.6382 -2.11276,25.4242 -0.32951,12.9803 0.0665,29.6004 0.87997,36.9338 0.81348,7.3333 1.85124,14.9833 2.30611,17 0.6706,2.973 0.36209,3.6666 -1.631,3.6666 -1.35191,0 -10.48088,-4.05 -20.2866,-9 -14.17732,-7.1568 -21.28327,-11.8358 -34.6974,-22.8469 -9.27787,-7.6159 -19.86884,-16.5275 -23.53551,-19.8036 -3.66666,-3.2761 -12.5399,-12.6449 -19.71829,-20.8197 -7.1784,-8.1747 -15.54185,-18.4631 -18.58547,-22.8631 -3.04361,-4.4 -6.82525,-9.8936 -8.40363,-12.2079 -1.57839,-2.3144 -4.70976,-6.531 -6.95862,-9.3704 -2.24884,-2.8394 -6.77374,-10.8459 -10.05532,-17.7921 -3.28158,-6.9463 -8.40501,-17.8003 -11.38541,-24.12 -2.98039,-6.3197 -8.70908,-19.2239 -12.73043,-28.676 -4.02134,-9.4521 -8.85932,-21.9271 -10.75106,-27.7223 -1.89175,-5.7952 -5.26095,-19.291 -7.48712,-29.9907 -2.22618,-10.6997 -4.97019,-24.8539 -6.09782,-31.4539 -1.12762,-6.6 -2.14996,-17.1 -2.27185,-23.3334 -0.12187,-6.2333 0.57793,-26.6333 1.55519,-45.3333 0.97726,-18.7 3.20229,-45.7 4.94453,-60 1.74223,-14.3 5.06629,-34.1 7.38681,-44 2.32051,-9.9 5.0192,-21.59997 5.99707,-25.99997 0.97787,-4.4 3.33265,-13.4 5.23285,-20 1.9002,-6.6 5.27674,-17.1 7.50342,-23.3333 2.22666,-6.2334 5.3452,-14.7834 6.93004,-19 1.58485,-4.2167 3.54345,-7.6667 4.35245,-7.6667 0.809,0 2.46205,3.0689 3.67345,6.8198 1.2114,3.7509 2.20255,7.5787 2.20255,8.5063 0,0.9277 3.24092,10.6145 7.20205,21.5264 3.96114,10.9119 8.11111,21.934 9.22216,24.4936 1.11106,2.5597 4.41373,12.1539 7.33929,21.32057 2.92556,9.1666 6.96379,22.026 8.97384,28.5764 2.01006,6.5503 3.61038,13.4666 3.55627,15.3696 -0.0541,1.903 -1.2866,6.4745 -2.73888,10.159 -1.45228,3.6844 -3.94253,16.6294 -5.53389,28.7666 -2.51111,19.1522 -2.81426,26.5418 -2.29454,55.9314 0.35854,20.274 1.46699,40.2845 2.76215,49.8636 1.18981,8.8 2.71289,18.4 3.38463,21.3334 0.67173,2.9333 2.16397,9.5916 3.31609,14.7963 1.15213,5.2046 4.44244,14.2046 7.31179,20 2.86936,5.7953 6.81014,13.837 8.7573,17.8703 1.94715,4.0334 5.59866,10.0334 8.11446,13.3334 2.51578,3.3 5.57252,7.8 6.79273,10 1.22021,2.2 5.20356,7.3 8.85188,11.3333 3.64832,4.0333 9.38504,9.6311 12.74827,12.4395 5.63421,4.7047 6.24842,4.9236 7.81264,2.7844 0.93373,-1.277 1.33961,-3.7484 0.90198,-5.492 -0.53566,-2.1343 -0.26084,-3.0443 0.8409,-2.7845 0.90013,0.2123 2.46086,-1.9252 3.46829,-4.7499 1.00743,-2.8246 5.08091,-11.8246 9.05217,-20 3.97126,-8.1753 8.55619,-17.8642 10.18874,-21.5308 1.63254,-3.6667 4.79738,-10.5667 7.03297,-15.3334 2.23559,-4.7666 7.7238,-14.0666 12.19601,-20.6666 4.47222,-6.6 12.42178,-17.7 17.6657,-24.6667 5.24392,-6.9667 13.67476,-16.8667 18.73521,-22 5.06045,-5.1333 13.35709,-12.9789 18.43697,-17.4346 5.07988,-4.4556 13.43615,-11.6061 18.56948,-15.89 5.13334,-4.2838 10.39867,-8.8796 11.70075,-10.2129 1.30208,-1.3333 5.80208,-4.6129 10,-7.288 4.19792,-2.6751 9.53801,-6.5263 11.86688,-8.5581 2.32887,-2.0319 5.97463,-4.0766 8.10171,-4.5438 2.12706,-0.4671 5.52359,-0.2197 7.54779,0.5499 2.0242,0.7696 7.3784,4.2316 11.8983,7.6933 4.5198,3.4617 10.3179,8.0909 12.8846,10.2871 2.5666,2.1962 13.0666,12.4223 23.3333,22.7246 10.2667,10.3023 20.6167,21.7708 23,25.4854 2.3833,3.7146 4.3333,7.2088 4.3333,7.7647 0,0.5559 1.2126,2.7137 2.6947,4.7951 1.4821,2.0815 5.3821,9.2245 8.6667,15.8734 3.2845,6.649 5.9923,12.8386 6.0172,13.7548 0.025,0.9162 1.2045,4.0658 2.6214,6.9991 1.4169,2.9333 2.5965,6.0491 2.6214,6.9238 0.025,0.8747 1.2443,3.6226 2.7097,6.1063 1.4654,2.4838 3.8204,8.0681 5.2333,12.4096 1.4129,4.3415 3.1697,10.8936 3.9041,14.5603 0.7343,3.6667 2.4972,11.1667 3.9175,16.6667 1.4202,5.5 3.6736,16 5.0074,23.3333 1.3337,7.3333 2.6163,14.8333 2.8502,16.6667 0.2338,1.8333 1.0655,6.3333 1.8482,10 0.7826,3.6666 2.0789,11.6166 2.8806,17.6666 0.8016,6.05 1.8955,11 2.4308,11 0.5352,0 5.7277,-5.0229 11.5389,-11.162 5.8112,-6.139 14.1265,-15.6522 18.4785,-21.1403 4.352,-5.4881 13.4875,-17.7152 20.3011,-27.1714 6.8137,-9.4561 17.1019,-24.3929 22.8629,-33.1929 5.7609,-8.8 13.5361,-21.6401 17.2782,-28.5334 3.7421,-6.8934 6.8039,-13.0684 6.8039,-13.7223 0,-0.6539 1.8614,-5.2138 4.1365,-10.1333 2.2751,-4.9194 5.9411,-12.8444 8.1465,-17.611 2.2055,-4.7667 5.3794,-11.6667 7.0531,-15.3334 1.6738,-3.6666 4.5773,-11.7666 6.4523,-18 1.875,-6.2333 3.7566,-15.5333 4.1813,-20.6666 0.4247,-5.1334 1.1474,-13.5334 1.6059,-18.6667 0.4585,-5.1333 0.089,-20.4333 -0.8219,-34 -0.9105,-13.5667 -2.3146,-26.7667 -3.1202,-29.3333 -0.8055,-2.5667 -1.5817,-7.0667 -1.7248,-10 -0.1431,-2.9334 -0.6225,-9.5334 -1.0654,-14.6667 -0.4428,-5.1333 -1.3653,-12.3333 -2.0499,-16 -0.6845,-3.6667 -2.1936,-10.5667 -3.3533,-15.3333 -1.1598,-4.7667 -2.4495,-10.1354 -2.866,-11.9305 -0.6169,-2.6585 -1.011,-2.9058 -2.1249,-1.3333 -1.0979,1.5499 -1.2134,1.4546 -0.5858,-0.484 0.43,-1.3279 -0.1306,-8.08397 -1.2456,-15.01347 -1.1151,-6.9295 -2.5698,-14.0255 -3.2327,-15.7691 -0.6629,-1.7434 -1.8457,-11.1573 -2.6285,-20.9196 -0.7828,-9.7624 -1.4209,-24.0798 -1.418,-31.8166 0,-7.7367 0.8911,-19.4668 1.9736,-26.0668 1.0825,-6.6 4.3396,-21.9 7.2381,-34 2.8985,-12.1 6.5492,-26.7465 8.1127,-32.5478 1.5635,-5.8013 4.2446,-13.3013 5.9579,-16.6667 1.7133,-3.3653 4.5327,-7.4402 6.2653,-9.0552 1.7326,-1.615 5.3727,-3.865 8.0891,-5 2.7165,-1.135 7.6775,-2.0636 11.0247,-2.0636 3.3471,0 8.0163,0.8261 10.3761,1.8358 2.3598,1.0097 6.0815,3.7397 8.2706,6.0667 l 3.98,4.2309 -4.1583,8.2666 c -2.2871,4.5467 -4.5765,9.4667 -5.0875,10.9333 -0.5111,1.4667 -1.7329,6.8667 -2.7152,12 -0.9823,5.1334 -2.6834,12.9334 -3.7803,17.3334 -1.097,4.4 -2.7135,14.3 -3.5923,22 -0.8788,7.7 -1.8932,19.3638 -2.2543,25.9197 -0.361,6.5558 -0.031,16.1558 0.7331,21.3333 0.7642,5.1775 2.0609,15.4136 2.8815,22.747 0.8207,7.3333 2.6123,17.2333 3.9815,22 1.3691,4.7666 2.9073,11.3666 3.4182,14.6666 0.5109,3.3 1.6777,7.5 2.593,9.3334 0.9153,1.8333 2.0915,5.7333 2.6139,8.66657 0.5223,2.9334 3.2206,12.2334 5.9962,20.6667 2.7757,8.4333 6.0894,19.5333 7.364,24.6667 1.2746,5.1333 3.1228,13.8333 4.1071,19.3333 0.9844,5.5 2.3914,12.1 3.1268,14.6667 0.7353,2.5666 1.9894,10.6666 2.7868,18 0.8564,7.8767 1.108,22.3367 0.6146,35.3333 -0.6184,16.2905 -1.7019,25.8063 -4.1753,36.6667 -1.8371,8.0666 -4.7511,20.3666 -6.4755,27.3333 -1.7244,6.9667 -4.2921,16.6066 -5.7059,21.4221 -1.4139,4.8154 -3.1963,9.9154 -3.9609,11.3333 -0.7647,1.4179 -4.0675,8.2779 -7.3397,15.2446 -3.2721,6.9667 -6.5723,14.5684 -7.3337,16.8927 -0.7614,2.3244 -4.8824,10.0156 -9.1578,17.0916 -4.2754,7.0761 -9.193,15.3744 -10.928,18.4407 -1.735,3.0662 -6.535,11.275 -10.6667,18.2417 -4.1316,6.9666 -11.5207,17.3238 -16.4202,23.0159 -4.8995,5.6921 -11.663,14.4931 -15.03,19.5578 -3.367,5.0647 -7.8582,11.0672 -9.9803,13.3389 -2.1221,2.2718 -8.431,9.7578 -14.0197,16.6355 -5.5887,6.8777 -26.189,28.236 -45.7783,47.4629 -19.5893,19.2271 -38.9411,37.227 -43.0039,40 -4.0629,2.7731 -8.2042,6.0264 -9.2029,7.2299 -0.9987,1.2033 -6.6746,5.9477 -12.613,10.5431 -5.9384,4.5954 -16.197,11.711 -22.797,15.8125 -6.6,4.1016 -16.35,9.5877 -21.6667,12.1915 -8.1008,3.9672 -9.6628,4.3678 -9.6425,2.473 z m 1267.3091,1.0808 c -4.4,-0.505 -9.9536,-1.6734 -12.3413,-2.5966 -2.6358,-1.019 -4.6456,-2.8902 -5.1155,-4.7626 -0.4257,-1.6964 -0.124,-8.3864 0.6709,-14.8668 0.7948,-6.4804 1.411,-26.4825 1.3692,-44.4492 -0.041,-17.9666 -0.6014,-41.3666 -1.2437,-52 -0.6424,-10.6333 -2.1259,-31.6333 -3.2967,-46.6666 -1.1708,-15.0334 -2.6818,-29.1334 -3.3578,-31.3334 -0.676,-2.2 -2.4599,-10.497 -3.9643,-18.4378 -1.5043,-7.9409 -3.5659,-17.2409 -4.5812,-20.6667 -1.0153,-3.4258 -3.1648,-12.2288 -4.7763,-19.5621 -1.6116,-7.3334 -4.025,-16.6334 -5.3632,-20.6667 -1.3381,-4.0333 -4.6613,-14.5333 -7.3848,-23.3333 -2.7234,-8.8 -6.9265,-19.9 -9.34,-24.6667 -2.4136,-4.7667 -5.2806,-10.7667 -6.3714,-13.3333 -1.0907,-2.5667 -3.5403,-8.3986 -5.4435,-12.9598 -1.9032,-4.5613 -3.4604,-9.125 -3.4604,-10.1416 0,-1.0167 2.0819,-4.5751 4.6264,-7.9076 4.4888,-5.8788 5.1931,-6.2382 23.6667,-12.0798 10.4721,-3.3114 23.6712,-6.9539 29.3312,-8.0944 5.66,-1.1405 18.5454,-2.7611 28.6345,-3.6013 10.0889,-0.8403 29.1581,-1.2369 42.3757,-0.8814 18.3827,0.4943 26.8343,1.3257 35.9523,3.5365 6.556,1.5896 12.556,3.3887 13.3333,3.9981 0.7772,0.6094 7.4132,3.0752 14.7466,5.4796 7.3333,2.4043 16.3333,5.881 20,7.726 3.6666,1.8449 9.6666,5.562 13.3333,8.2601 3.6667,2.6981 9.944,6.7756 13.9496,9.0611 4.0056,2.2855 12.552,9.3973 18.9919,15.804 6.4398,6.4067 12.0529,12.7327 12.4736,14.0579 0.4205,1.3251 1.276,2.4092 1.901,2.4092 0.625,0 5.2858,5.55 10.3574,12.3334 5.0714,6.7833 10.8381,14.9006 12.8148,18.0385 1.9765,3.1378 3.9597,7.6378 4.407,10 0.4474,2.3621 1.2358,4.8948 1.752,5.6281 0.5164,0.7334 1.6842,4.3334 2.5951,8 0.9109,3.6667 2.4809,8.7667 3.4891,11.3334 1.0082,2.5666 3.4296,15.7308 5.3809,29.2536 2.5827,17.8982 3.2919,26.7851 2.6072,32.6667 -0.5175,4.4438 -1.4909,11.8297 -2.1635,16.413 -0.6725,4.5833 -1.7468,12.0833 -2.3872,16.6667 -0.6404,4.5833 -4.2644,16.1333 -8.0533,25.6666 -3.7889,9.5334 -9.3264,22.1334 -12.3055,28 -2.9792,5.8667 -8.8052,15.3831 -12.9466,21.1476 -4.1416,5.7646 -9.9026,13.1644 -12.8022,16.4443 -2.8996,3.2797 -10.6996,10.0165 -17.3333,14.9705 -6.6337,4.9542 -18.0996,12.4043 -25.4796,16.5559 -7.38,4.1516 -14.3945,7.5484 -15.588,7.5484 -1.1933,0 -2.5603,0.632 -3.0376,1.4044 -0.4773,0.7724 -3.9628,2.7724 -7.7453,4.4445 -3.7827,1.6722 -10.7775,4.2831 -15.5442,5.802 -4.7666,1.5191 -12.2666,3.6731 -16.6666,4.7867 -4.4,1.1136 -14.993,3.8576 -23.5399,6.098 -8.5469,2.2403 -20.8469,5.0563 -27.3333,6.2577 -6.4864,1.2015 -14.7935,2.6707 -18.4602,3.265 -3.6666,0.5942 -8.1666,1.0326 -10,0.9744 -1.8333,-0.059 -6.9333,-0.5192 -11.3333,-1.0242 z m 53.3333,-58.6513 c 3.6667,-0.6131 11.056,-2.3196 16.4207,-3.7921 5.3647,-1.4726 11.6647,-3.5474 14,-4.6106 2.3353,-1.0632 8.746,-3.9466 14.246,-6.4076 5.5,-2.4609 13.6,-6.5392 18,-9.0628 4.4,-2.5236 14.1353,-9.318 21.6341,-15.0985 7.4988,-5.7805 18.2988,-15.6035 24,-21.8288 5.7012,-6.2253 12.6175,-15.3473 15.3694,-20.2712 2.752,-4.9237 5.8665,-11.9523 6.9213,-15.6189 1.0548,-3.6667 3.1613,-11.7667 4.6812,-18 1.7223,-7.0635 2.7565,-15.6751 2.7453,-22.8574 -0.013,-6.3382 -0.9286,-16.2382 -2.0417,-22 -1.1131,-5.7618 -2.9904,-14.976 -4.1719,-20.476 -1.1813,-5.5 -3.7854,-13.6 -5.7869,-18 -2.0165,-4.433 -8.692,-14.0127 -14.9719,-21.4854 -6.233,-7.4169 -16.4613,-18.2482 -22.7293,-24.0695 -7.566,-7.0268 -15.1361,-12.5338 -22.5231,-16.3847 -6.1196,-3.1902 -12.0265,-6.298 -13.1265,-6.9062 -1.1,-0.6082 -7.4,-3.5826 -14,-6.6098 -6.6,-3.0271 -15.6,-6.026 -20,-6.664 -4.4,-0.638 -11.1109,-1.1721 -14.9132,-1.1869 -3.8023,-0.015 -8.6023,-0.6712 -10.6667,-1.4587 -2.6996,-1.0299 -8.2458,-0.9927 -19.7534,0.1326 -8.8,0.8606 -19.6,2.8054 -24,4.3219 -4.4,1.5165 -8.1438,2.8506 -8.3195,2.9646 -0.1756,0.114 2.6115,7.6635 6.1936,16.7767 3.5821,9.1132 8.1109,21.8153 10.064,28.2268 1.9529,6.4115 5.2611,19.9694 7.3512,30.1286 2.0901,10.1591 4.8027,26.2133 6.0279,35.676 1.2252,9.4626 3.0737,23.2047 4.1077,30.5381 1.034,7.3333 3.3552,21.5416 5.1583,31.574 1.803,10.0322 4.2773,31.0322 5.4981,46.6666 1.2939,16.5675 1.9176,34.4055 1.4953,42.7594 l -0.7246,14.3333 3.574,-0.097 c 1.9657,-0.053 6.574,-0.599 10.2406,-1.2122 z m -8.6666,-0.6905 c 0,-0.3667 0.3,-0.6667 0.6666,-0.6667 0.3667,0 0.6667,0.3 0.6667,0.6667 0,0.3666 -0.3,0.6666 -0.6667,0.6666 -0.3666,0 -0.6666,-0.3 -0.6666,-0.6666 z m 70.3333,-255.4826 c -1.2833,-0.7242 -2.3333,-1.8868 -2.3333,-2.5837 0,-0.6969 0.75,-1.2579 1.6666,-1.2466 0.9167,0.011 2.5616,0.5862 3.6555,1.2778 1.3113,0.829 1.5385,1.7022 0.6667,2.5632 -0.8628,0.8522 -2.1327,0.8485 -3.6555,-0.011 z M 810.06841,1469.4576 c -0.48337,-0.7821 -0.5929,-1.708 -0.2434,-2.0576 0.3495,-0.3494 0.99075,0.2906 1.425,1.4222 0.43424,1.1316 0.54378,2.0574 0.2434,2.0574 -0.30037,0 -0.94161,-0.6398 -1.425,-1.422 z m 1376.72139,-0.578 c 0,-0.3666 0.3,-0.6666 0.6667,-0.6666 0.3667,0 0.6667,0.3 0.6667,0.6666 0,0.3667 -0.3,0.6667 -0.6667,0.6667 -0.3667,0 -0.6667,-0.3 -0.6667,-0.6667 z M 441.4565,1466.213 c 0,-0.3667 0.3,-0.6667 0.6667,-0.6667 0.3666,0 0.6666,0.3 0.6666,0.6667 0,0.3666 -0.3,0.6666 -0.6666,0.6666 -0.3667,0 -0.6667,-0.3 -0.6667,-0.6666 z m 5.3333,-1.3334 c 0,-0.3666 0.3,-0.6666 0.6667,-0.6666 0.3667,0 0.6667,0.3 0.6667,0.6666 0,0.3667 -0.3,0.6667 -0.6667,0.6667 -0.3667,0 -0.6667,-0.3 -0.6667,-0.6667 z m 893.7778,-16.2222 c 0.4889,-0.4888 1.2889,-0.4888 1.7778,0 0.4889,0.4889 0.089,0.8889 -0.8889,0.8889 -0.9778,0 -1.3778,-0.4 -0.8889,-0.8889 z m -361.56241,-17.2915 c -2.44827,-1.2468 -5.01292,-3.744 -5.69923,-5.5491 -0.78553,-2.0661 -0.75197,-6.5526 0.0905,-12.1096 0.73612,-4.8552 2.54951,-17.8189 4.02974,-28.8084 1.48024,-10.9894 3.66636,-22.9894 4.85806,-26.6666 1.19171,-3.6772 3.36687,-9.5359 4.83368,-13.0192 2.11,-5.0108 3.32346,-6.3334 5.81068,-6.3334 2.19788,0 3.31983,0.9027 3.729,3 0.32188,1.65 1.52466,9.9 2.67282,18.3334 1.14816,8.4333 2.69626,25.981 3.44016,38.9949 0.7439,13.0139 1.3526,25.1427 1.3526,26.9531 0,1.8102 -1.0794,3.8692 -2.3987,4.5752 -1.3192,0.706 -5.96922,1.6466 -10.3333,2.0902 -6.05371,0.6154 -8.98994,0.2691 -12.38608,-1.4605 z m -448.80549,-3.7105 c 1.4223,-1.0402 2.8696,-1.6075 3.2162,-1.261 0.3466,0.3467 -0.2525,1.1884 -1.3312,1.8707 -1.0788,0.6821 -2.5261,1.2496 -3.2163,1.2608 -0.6901,0.013 -0.091,-0.8305 1.3313,-1.8705 z m 1486.3679,-69.6647 c 0.4889,-0.4888 1.2889,-0.4888 1.7778,0 0.4888,0.4889 0.089,0.8889 -0.8889,0.8889 -0.9777,0 -1.3777,-0.4 -0.8889,-0.8889 z m 535.6608,-53.2222 c 0.064,-1.5532 0.38,-1.8692 0.8056,-0.8055 0.3852,0.9625 0.3378,2.1125 -0.1054,2.5555 -0.443,0.4431 -0.7582,-0.3444 -0.7004,-1.75 z m -1427.6608,-34.7777 c 0.4889,-0.4889 1.2889,-0.4889 1.7778,0 0.4889,0.4888 0.089,0.8888 -0.8889,0.8888 -0.9778,0 -1.3778,-0.4 -0.8889,-0.8888 z m -1.7777,-8.4445 c 0,-0.9778 0.4,-1.3778 0.8888,-0.8889 0.4889,0.4889 0.4889,1.2889 0,1.7778 -0.4888,0.4889 -0.8888,0.089 -0.8888,-0.8889 z m 923.111,-84.8889 c 0.4889,-0.4889 1.2889,-0.4889 1.7779,0 0.4888,0.4889 0.089,0.8889 -0.889,0.8889 -0.9777,0 -1.3777,-0.4 -0.8889,-0.8889 z m -971.111,-5.1111 c 0,-0.3667 0.3,-0.6667 0.6667,-0.6667 0.3666,0 0.6666,0.3 0.6666,0.6667 0,0.3667 -0.3,0.6667 -0.6666,0.6667 -0.3667,0 -0.6667,-0.3 -0.6667,-0.6667 z m 761.3333,-1.3333 c 0,-0.3667 0.3,-0.6667 0.6666,-0.6667 0.3667,0 0.6667,0.3 0.6667,0.6667 0,0.3666 -0.3,0.6666 -0.6667,0.6666 -0.3666,0 -0.6666,-0.3 -0.6666,-0.6666 z m -703.5565,-26.2255 c -1.5418,-3.9093 -3.8273,-10.7079 -5.0789,-15.1079 -1.2516,-4.4 -3.7731,-12.05 -5.6033,-17 -1.8303,-4.95 -3.9107,-9 -4.6232,-9 -0.7125,0 -0.9029,-0.6352 -0.4231,-1.4115 0.4798,-0.7764 -3.1505,-9.3928 -8.0675,-19.1475 -4.9169,-9.7547 -11.5325,-21.2695 -14.7013,-25.5884 -3.1688,-4.3189 -7.753,-10.442 -10.1871,-13.6069 -2.4342,-3.1649 -8.7218,-9.862 -13.9726,-14.8824 -5.2508,-5.0205 -13.0508,-11.3767 -17.3334,-14.125 -4.2825,-2.7483 -11.0864,-6.449 -15.1197,-8.2239 -4.0334,-1.7748 -8.5334,-3.6894 -10,-4.2546 -1.4667,-0.5652 -4.7667,-1.79257 -7.3334,-2.72757 -2.5666,-0.9349 -6.6249,-1.9912 -9.0183,-2.3474 -2.3935,-0.3561 -5.1164,-0.013 -6.0509,0.7628 -0.9346,0.7756 -7.51352,3.32017 -14.61987,5.65467 -7.66026,2.5164 -12.57692,4.8006 -12.07641,5.6105 0.47284,0.765 0.19291,0.9634 -0.63633,0.4509 -0.81431,-0.5033 -5.407,0.9994 -10.20602,3.3393 -4.799,2.3399 -8.72546,4.759 -8.72546,5.3757 0,0.6168 -0.5082,0.9713 -1.12934,0.788 -0.62113,-0.1833 -5.7393,2.5741 -11.3737,6.1276 -5.63442,3.5535 -12.2511,8.3535 -14.70374,10.6667 -2.45265,2.3131 -4.85172,4.2057 -5.33126,4.2057 -0.47955,0 -6.63824,5.7 -13.68598,12.6667 -7.04774,6.9666 -16.8317,18.0666 -21.74213,24.6666 -4.91043,6.6 -11.08885,15.9 -13.72983,20.6667 -2.64097,4.7667 -6.63288,13.4351 -8.87089,19.2631 -2.23803,5.828 -4.75696,14.0926 -5.59765,18.3658 -0.8407,4.2732 -1.95868,8.0352 -2.48442,8.3602 -0.52573,0.3249 -4.34478,-0.3734 -8.4868,-1.5516 l -7.53093,-2.1424 -10e-4,-9.4809 c -6.1e-4,-5.2145 -0.5966,-16.0809 -1.32441,-24.1475 -0.72782,-8.0667 -1.9193,-18.2667 -2.64772,-22.6667 -0.72843,-4.4 -2.22739,-15.2 -3.33102,-24 -1.10362,-8.8 -3.18509,-27.9481 -4.62546,-42.5512 -1.44039,-14.6032 -2.97159,-27.47047 -3.4027,-28.59387 -0.43109,-1.1234 -2.25012,-11.0753 -4.04226,-22.1154 -1.79216,-11.0401 -4.08982,-23.9728 -5.1059,-28.7395 -1.01608,-4.7667 -3.38144,-14.0667 -5.25636,-20.6667 -1.8749,-6.6 -4.64176,-16.2 -6.14854,-21.3333 -1.5068,-5.1333 -3.29526,-10.5333 -3.97435,-12 -0.67909,-1.4667 -2.12324,-5.6667 -3.20923,-9.3333 -1.08598,-3.6667 -3.31092,-11.4667 -4.94428,-17.3334 -1.63337,-5.8666 -3.79856,-12.5573 -4.81154,-14.8681 -1.01298,-2.3109 -1.84178,-4.882 -1.84178,-5.7136 0,-0.8316 -0.89625,-2.8799 -1.99166,-4.5517 -1.09542,-1.6719 -4.08239,-9.0007 -6.63772,-16.2865 -2.55535,-7.2857 -4.6591,-14.4767 -4.67502,-15.9801 -0.0159,-1.5033 -0.50902,-3.3033 -1.09581,-4 -0.58679,-0.6966 -2.34125,-4.5666 -3.89881,-8.6 -1.55756,-4.0333 -3.48336,-10.5403 -4.27954,-14.4599 -0.79617,-3.9196 -2.3417,-8.4032 -3.43452,-9.9634 -1.09279,-1.5602 -1.98691,-4.3534 -1.98691,-6.2072 0,-1.8537 0.8904,-7.5702 1.97865,-12.7033 1.08826,-5.1331 2.60773,-14.4328 3.37661,-20.6662 0.76887,-6.2333 2.25912,-15.8333 3.31167,-21.3333 1.05254,-5.5 2.4795,-13.6 3.17101,-18 0.69151,-4.4 2.21632,-12.2 3.38848,-17.3333 1.17215,-5.1334 3.01903,-14.7334 4.10416,-21.3334 1.08513,-6.6 2.51871,-14.7 3.18572,-18 0.66703,-3.3 2.73045,-12.3 4.5854,-20 1.85496,-7.7 4.91757,-19.8047 6.80581,-26.8994 1.88824,-7.0947 5.7759,-19.4393 8.63923,-27.4325 2.86332,-7.9931 7.70444,-19.8883 10.75803,-26.4338 3.0536,-6.5455 7.20645,-15.2009 9.22858,-19.2343 2.02212,-4.0333 5.21276,-9.7659 7.0903,-12.739 1.87754,-2.9732 5.30888,-9.4593 7.62518,-14.4136 2.31632,-4.9543 4.78148,-10.3217 5.47815,-11.9276 0.69665,-1.6058 1.81417,-3.8198 2.48337,-4.9198 0.6692,-1.1 5.78528,-11.3 11.3691,-22.6666 5.5838,-11.3667 10.7021,-21.56673 11.37401,-22.66673 0.67191,-1.1 3.11439,-5.9 5.42775,-10.6667 2.31336,-4.7666 4.97484,-9.5666 5.9144,-10.6666 0.93954,-1.1 4.57846,-7.1 8.08646,-13.3334 3.508,-6.2333 9.56647,-16.1758 13.46324,-22.0944 3.89679,-5.9186 8.92083,-12.8186 11.16454,-15.3333 2.2437,-2.5147 8.04629,-10.5636 12.89462,-17.8864 4.84835,-7.3228 11.57826,-17.0652 14.95535,-21.6497 3.37709,-4.5846 8.84017,-12.2533 12.14017,-17.0417 3.3,-4.7884 9,-12.7652 12.66667,-17.7263 3.66667,-4.961 8.76667,-11.3448 11.33333,-14.1862 2.56667,-2.8413 9.42112,-9.7221 15.23211,-15.2906 5.81099,-5.5686 13.011,-12.5458 16,-15.505 2.989,-2.9592 9.3346,-10.0904 14.1012,-15.8471 4.7667,-5.7567 16.2044,-18.0356 25.4171,-27.2863 9.2128,-9.2508 23.4684,-23.2696 31.6793,-31.1529 8.2108,-7.8833 15.8253,-14.3333 16.921,-14.3333 1.0957,0 4.2312,-1.2 6.9676,-2.6667 2.7365,-1.4667 6.2661,-2.6667 7.8435,-2.6667 1.5774,0 7.2863,-1.4667 12.6864,-3.2593 5.4001,-1.7926 15.8184,-5.0429 23.1517,-7.223 7.3334,-2.1801 15.3166,-4.9739 17.7406,-6.2086 3.0372,-1.547 5.87,-1.9704 9.1129,-1.362 l 4.7056,0.8828 -0.9529,11.5851 c -0.5242,6.3717 -1.3952,12.785 -1.9357,14.2517 -0.5405,1.4667 -1.6561,8.6667 -2.479,16 -0.823,7.3333 -2.1311,20.9752 -2.9069,30.3152 -0.7759,9.34 -1.9401,18.64 -2.5873,20.6667 -0.6471,2.0266 -1.646,7.8848 -2.2197,13.0181 -0.5737,5.1333 -0.9267,10.2333 -0.7845,11.3333 0.1421,1.1 -0.6039,9.5 -1.658,18.6667 -1.0541,9.1667 -2.2733,23.2667 -2.7095,31.3333 -0.4361,8.0667 -1.692,24.9283 -2.7909,37.4704 -1.0988,12.542 -2.1187,36.542 -2.2663,53.3332 -0.2537,28.8567 -0.097,31.0412 2.854,39.863 1.7172,5.1334 3.7333,10.83343 4.4802,12.66673 0.7468,1.8333 1.8724,7.3606 2.5014,12.2827 0.6289,4.9222 1.7477,10.0222 2.4861,11.3334 0.7385,1.3111 2.2578,4.7072 3.3763,7.5467 1.1185,2.8396 2.0373,6.1396 2.0418,7.3334 0,1.1938 0.9264,3.9312 2.0486,6.0831 1.1222,2.152 2.5936,6.052 3.2699,8.6667 0.6763,2.6147 2.1938,8.054 3.3722,12.0873 1.1785,4.0334 2.6626,10.3334 3.2981,14 0.6355,3.6667 2.6555,12.0667 4.4889,18.6667 1.8334,6.6 3.9947,14.4 4.8029,17.3333 0.8083,2.9334 2.2768,6.8334 3.2634,8.6667 0.9866,1.8333 2.8227,6.9333 4.0802,11.3333 1.2575,4.4 2.7759,8.6 3.3743,9.3334 0.5984,0.7333 1.4986,3.7333 2.0005,6.6666 0.5018,2.9334 1.5473,7.4334 2.3232,10 0.776,2.5667 2.2825,7.3667 3.3479,10.6667 1.0654,3.3 2.4366,7.2 3.047,8.6667 0.6104,1.4666 2.1036,6.2666 3.3183,10.6666 1.2147,4.4 2.692,8.6 3.283,9.3334 0.5909,0.7333 2.59,5.0779 4.4423,9.6545 1.8523,4.5767 4.1136,11.6541 5.0252,15.7275 0.9117,4.0735 2.1559,7.7144 2.765,8.0909 0.6092,0.3764 1.1076,1.5313 1.1076,2.5662 0,1.035 1.5,5.1612 3.3333,9.1693 1.8334,4.008 3.3451,8.0758 3.3595,9.0395 0.014,0.9636 2.7145,8.0455 6,15.7374 3.2856,7.692 5.9739,14.8013 5.9739,15.7985 0,0.9973 0.8113,3.7038 1.8029,6.0147 0.9917,2.3108 3.1374,8.7015 4.7683,14.2015 1.6309,5.5 3.2791,11.5916 3.6626,13.5368 0.4737,2.4024 -0.5008,5.61 -3.0379,10 -2.0544,3.5548 -5.9571,9.4632 -8.6728,13.1298 -2.7156,3.6667 -7.0707,10.8667 -9.678,16 -2.6074,5.1334 -6.0321,12.3334 -7.6106,16 -1.5785,3.6667 -4.2226,10.5667 -5.8757,15.3334 -1.6532,4.7666 -4.5319,13.1666 -6.3972,18.6666 -1.8654,5.5 -5.4815,16.9 -8.036,25.3334 -2.5544,8.4333 -5.9257,20.4333 -7.4917,26.6666 -1.566,6.2334 -3.362,13.7334 -3.991,16.6667 -0.6291,2.9333 -1.8396,9.2333 -2.6902,14 -0.8506,4.7667 -2.6502,12.2667 -3.9991,16.6667 -1.3489,4.4 -3.672,13.4 -5.1623,20 -1.4904,6.6 -3.1159,15.6 -3.6124,20 -0.4964,4.4 -1.4308,8.6446 -2.0764,9.4325 -0.6455,0.7879 -1.5594,5.8879 -2.0307,11.3333 -0.4714,5.44547 -1.7464,13.50077 -2.8335,17.90077 -1.087,4.4 -2.7824,13.7 -3.7675,20.6667 -0.985,6.9667 -2.4264,15.6667 -3.2031,19.3333 -0.7766,3.6667 -1.9715,12.3667 -2.6553,19.3334 -0.6838,6.9666 -2.1957,16.2666 -3.3597,20.6666 -1.1864,4.485 -2.5417,17.3231 -3.0845,29.2183 l -0.9682,21.2183 -8.6667,2.9912 c -4.7667,1.6451 -11.3861,3.3955 -14.7099,3.8896 l -6.0433,0.8984 z M 928.12324,921.38983 c 1.83333,-2.1903 4.53333,-5.3347 6,-6.9875 1.46667,-1.6528 4.41272,-5.6715 6.54679,-8.9305 2.13408,-3.259 7.61353,-9.8255 12.17657,-14.5922 4.56304,-4.7666 11.30807,-12.3196 14.98895,-16.7842 3.68086,-4.4647 9.00141,-9.8937 11.82342,-12.0644 2.82202,-2.1707 6.93094,-5.0698 9.13094,-6.4425 2.2,-1.3727 4.87534,-3.7437 5.94522,-5.269 1.06988,-1.5252 4.90691,-5.9232 8.52677,-9.7732 3.6198,-3.85 7.383,-7 8.3627,-7 0.9796,0 2.1875,1.65 2.6842,3.6667 0.4966,2.0166 1.8357,5.1666 2.9758,7 1.1401,1.8333 4.7952,6.3689 8.1224,10.0791 3.3273,3.7102 10.2346,13.0102 15.3497,20.6667 5.1151,7.6564 13.96,20.6185 19.6555,28.8046 5.6954,8.186 10.9328,16.4028 11.6387,18.2594 1.1399,2.9982 1.8494,3.2964 6.3446,2.667 2.7835,-0.3898 7.4264,-1.5978 10.3175,-2.6846 2.891,-1.0867 6.791,-3.0466 8.6666,-4.3554 1.8757,-1.3087 5.8083,-2.7537 8.7392,-3.2111 2.9309,-0.4573 5.933,-1.6575 6.6712,-2.6671 0.7382,-1.0096 4.0402,-3.1857 7.3377,-4.8359 3.2975,-1.6501 10.9455,-8.1229 16.9955,-14.384 6.05,-6.2611 11,-11.9506 11,-12.6433 0,-0.6927 1.95,-4.0576 4.3333,-7.4775 2.3834,-3.4199 4.708,-6.5179 5.1658,-6.8846 0.4579,-0.3667 1.2719,-2.6907 1.8088,-5.1646 0.537,-2.4739 2.0766,-6.3739 3.4214,-8.6667 1.3448,-2.2928 3.9156,-8.3687 5.7128,-13.502 1.7972,-5.1334 5.1842,-15.6334 7.5266,-23.3334 2.3424,-7.7 5.0238,-15.8 5.9587,-18 0.9349,-2.2 2.6948,-7.4305 3.9109,-11.6233 1.8524,-6.3871 2.1043,-12.0747 1.5533,-35.0729 -0.3617,-15.0973 -0.9844,-27.9783 -1.3838,-28.6244 -0.3994,-0.6462 -1.2859,-5.2634 -1.97,-10.2605 -0.6842,-4.997 -2.4525,-15.526 -3.9297,-23.3978 -1.4771,-7.8718 -3.5488,-15.6718 -4.6037,-17.3333 -1.0549,-1.6616 -3.8115,-8.7211 -6.1257,-15.6878 -2.3142,-6.9666 -4.4618,-13.4415 -4.7725,-14.3885 -0.4151,-1.2654 -1.591,-0.9632 -4.4354,1.1398 -3.36,2.4841 -3.9465,3.9122 -4.4467,10.8278 -0.3565,4.9283 -1.3036,8.4264 -2.4835,9.1731 -1.049,0.6639 -2.9144,1.2162 -4.1454,1.2274 -1.2309,0.011 -3.1809,-0.9224 -4.3333,-2.0748 -1.1524,-1.1524 -2.0952,-3.4113 -2.0952,-5.0197 0,-1.6085 -1.2606,-5.3157 -2.8012,-8.2381 -1.5406,-2.9225 -5.0251,-8.0136 -7.7433,-11.3136 -2.7613,-3.3523 -6.1973,-9.8244 -7.7865,-14.6667 -1.5644,-4.7667 -3.2465,-10.9158 -3.7381,-13.6649 -0.6403,-3.5809 -1.881,-5.4714 -4.3755,-6.6669 -2.6277,-1.2595 -3.7187,-3.0567 -4.4476,-7.3267 -0.5313,-3.1119 -1.465,-6.5498 -2.075,-7.6398 -0.9351,-1.6709 -2.3584,-1.3298 -9.071,2.1735 -4.379,2.2854 -11.8929,6.7734 -16.6974,9.9734 -4.8045,3.1999 -9.9045,5.8089 -11.3333,5.7977 -1.4288,-0.011 -3.2606,-0.4613 -4.0706,-1 -0.8268,-0.5499 -1.7947,-6.9666 -2.2065,-14.6276 -0.6899,-12.8344 -0.9886,-13.9699 -5.0124,-19.0504 -2.3534,-2.9714 -6.4605,-6.5124 -9.1269,-7.8689 -2.6664,-1.3566 -9.348,-3.7863 -14.848,-5.3994 -5.5,-1.6132 -11.4265,-3.8446 -13.17,-4.9586 -2.9855,-1.9077 -3.3411,-1.811 -6.1114,1.6634 -2.1426,2.6871 -3.726,3.4838 -5.8301,2.9336 -2.5294,-0.6615 -2.8885,-0.2111 -2.8885,3.6232 0,2.4082 -0.75,4.9627 -1.6667,5.6766 -0.9167,0.7139 -5.2202,1.9881 -9.56338,2.8315 -4.34319,0.8433 -8.99319,2.5257 -10.33333,3.7385 -1.45847,1.3199 -2.43662,1.5869 -2.43662,0.6651 0,-0.9933 -2.83988,-1.54 -8,-1.54 -4.4,0 -8,0.5617 -8,1.2483 0,0.6865 -5.51104,6.7383 -12.24676,13.4484 -10.96142,10.9198 -12.67096,12.138 -16.2885,11.607 -2.22296,-0.3262 -6.09203,0.2635 -8.59792,1.3105 -2.5059,1.0471 -7.26906,1.7122 -10.58479,1.4781 l -6.02861,-0.4256 -2.89651,11.8303 c -2.83141,11.5644 -3.09125,12.0139 -11.56173,20 -4.76587,4.4933 -13.11946,12.0048 -18.56354,16.6922 -5.44406,4.6873 -10.22409,9.7819 -10.62226,11.3213 -0.39818,1.5394 -2.3576,3.3735 -4.35428,4.0757 -2.82208,0.9924 -4.12043,0.7866 -5.8316,-0.9246 -1.39548,-1.3954 -2.20127,-4.4029 -2.20127,-8.2157 0,-5.2197 -0.22931,-5.7126 -1.73537,-3.7301 -0.95446,1.2563 -1.75446,2.8448 -1.77779,3.5299 -0.0233,0.6852 -1.19685,3.6852 -2.60785,6.6667 -1.41099,2.9815 -3.49979,7.521 -4.64176,10.0876 -1.14198,2.5667 -3.28752,6.7573 -4.76788,9.3126 -1.48038,2.5552 -2.68991,5.8552 -2.68787,7.3333 0.003,1.4781 -1.34693,5.2375 -2.99772,8.3541 -1.65077,3.1167 -3.68739,5.6667 -4.52581,5.6667 -0.83843,0 -1.93226,1.65 -2.43074,3.6667 -0.49846,2.0166 -2.32865,5.1666 -4.06706,7 -1.73843,1.8333 -3.78096,6.0333 -4.53898,9.3333 -0.75801,3.3 -1.39288,11.8146 -1.4108,18.9213 -0.0181,7.2133 0.5564,13.2853 1.30074,13.7454 0.73333,0.4532 1.36909,4.5386 1.41281,9.0787 0.0437,4.54 0.61931,10.9546 1.27909,14.2546 0.65978,3.3 2.43258,10.8 3.93952,16.6667 1.50696,5.8666 3.70752,13.6666 4.89015,17.3333 1.18261,3.6667 3.527,9.0932 5.20973,12.059 1.68274,2.9657 7.19522,13.4657 12.24996,23.3333 5.05475,9.8676 10.94832,20.641 13.09683,23.941 2.14851,3.3 6.39795,9.4319 9.44321,13.6265 3.04526,4.1945 7.55344,9.5945 10.01818,12 2.46473,2.4054 6.74573,6.9464 9.51333,10.091 2.7676,3.1446 6.71712,6.7446 8.77671,8 2.0596,1.2554 6.33053,4.2325 9.49098,6.6159 3.2327,2.4378 7.26266,4.2952 9.21288,4.2463 2.14402,-0.054 4.73836,-1.6064 6.79995,-4.0695 z m -42.10688,-167.1528 c -2.0624,-3.1476 -1.99204,-3.5874 1.43975,-9 1.98446,-3.1299 6.0964,-7.5932 9.13762,-9.9185 3.04123,-2.3253 7.32951,-4.623 9.52951,-5.1058 2.2,-0.4829 7.51881,-2.3949 11.81957,-4.2489 7.30328,-3.1484 8.35971,-3.2688 16,-1.8239 4.49924,0.8508 10.93354,2.4314 14.29846,3.5123 3.3649,1.081 7.64253,3.5993 9.50582,5.5964 1.8633,1.9971 5.00295,6.2369 6.97702,9.4218 1.97408,3.1849 3.26528,6.6349 2.86936,7.6666 -0.39594,1.0318 -2.02691,1.876 -3.62439,1.876 -1.59749,0 -5.36632,-2.0115 -8.37519,-4.4699 -3.00885,-2.4584 -7.57065,-5.5553 -10.13732,-6.882 -2.90552,-1.5018 -7.43418,-2.3907 -12,-2.3554 -5.37958,0.042 -10.41009,1.3647 -18.88185,4.9659 -6.51253,2.7684 -13.60621,6.9076 -16.26724,9.4919 -2.59531,2.5206 -5.93464,4.5828 -7.42075,4.5828 -1.4861,0 -3.67777,-1.4892 -4.87037,-3.3093 z m 170.25124,2.0934 c -1.3304,-0.8425 -1.6588,-2.9211 -1.1602,-7.3449 0.4525,-4.0142 1.7996,-7.2972 3.8557,-9.3964 1.7381,-1.7747 4.2227,-4.3726 5.5215,-5.7732 1.2988,-1.4006 4.2988,-3.4869 6.6667,-4.6362 2.3679,-1.1492 7.6053,-2.7962 11.6386,-3.6598 5.3781,-1.1515 10.8882,-1.2069 20.6666,-0.2077 7.9094,0.8082 15.8418,2.4843 19.4997,4.1201 3.3915,1.5168 7.7094,4.7809 9.5955,7.2536 1.8861,2.4728 3.8154,6.0346 4.2874,7.9153 0.472,1.8806 0.4636,4.6626 -0.019,6.1822 -0.4823,1.5196 -1.8997,2.7629 -3.1499,2.7629 -1.2502,0 -4.4182,-1.7682 -7.0401,-3.9294 -2.6219,-2.1612 -7.4086,-5.0112 -10.6371,-6.3333 -4.2004,-1.7202 -9.0938,-2.3663 -17.2034,-2.2716 -6.2333,0.073 -14.0333,0.8509 -17.3333,1.7291 -3.3,0.8781 -7.5489,2.1995 -9.442,2.9363 -1.8932,0.7368 -4.8932,3.6926 -6.6667,6.5684 -1.7735,2.8758 -4.1246,5.2357 -5.2246,5.2442 -1.1,0.01 -2.8351,-0.5133 -3.8556,-1.1596 z M 864.12324,1136.8796 c 0,-0.3666 0.3,-0.6666 0.66667,-0.6666 0.36666,0 0.66666,0.3 0.66666,0.6666 0,0.3667 -0.3,0.6667 -0.66666,0.6667 -0.36667,0 -0.66667,-0.3 -0.66667,-0.6667 z m 1545.99996,-2 c -0.4532,-0.7333 -0.1887,-1.3333 0.588,-1.3333 0.7765,0 1.412,0.6 1.412,1.3333 0,0.7334 -0.2646,1.3334 -0.588,1.3334 -0.3234,0 -0.9588,-0.6 -1.412,-1.3334 z m -1031.3333,-59.6687 c -3.4784,-1.7376 -5.9133,-4.7037 -9.5624,-11.6481 -2.6926,-5.1242 -6.2392,-14.4242 -7.8814,-20.6666 -1.6421,-6.2425 -3.4354,-11.9499 -3.985,-12.6832 -0.5496,-0.7334 -1.432,-3.7334 -1.9608,-6.6667 -0.5288,-2.9333 -1.5185,-6.4113 -2.1994,-7.7288 -0.6809,-1.3174 -2.4031,-6.7174 -3.8272,-12 -1.424,-5.28247 -3.2443,-12.30447 -4.045,-15.60447 -0.8006,-3.3 -2.2419,-10.2 -3.2027,-15.3334 -0.9608,-5.1333 -3.2717,-16.8333 -5.1353,-26 -1.8635,-9.1666 -4.0211,-22.8802 -4.7946,-30.4746 -0.7734,-7.5943 -1.3953,-24.6943 -1.3818,-38 0.014,-13.727 0.849,-29.9598 1.9307,-37.5254 1.0484,-7.3333 2.9107,-16.6333 4.1383,-20.6666 1.2276,-4.0334 3.5087,-9.9283 5.0693,-13.0999 1.5605,-3.1715 4.723,-7.9918 7.0278,-10.7118 3.3365,-3.9374 6.249,-5.5769 14.2894,-8.0439 5.5543,-1.7042 10.7106,-3.8357 11.4583,-4.7366 0.7476,-0.9009 2.2548,-4.1759 3.3492,-7.2777 1.0944,-3.1018 3.1613,-7.2849 4.5931,-9.2958 1.4319,-2.0108 4.5021,-7.2212 6.8227,-11.5785 2.3206,-4.3574 5.7505,-10.7795 7.622,-14.2714 1.8716,-3.4919 4.6906,-7.6919 6.2647,-9.3333 1.574,-1.6415 7.5932,-8.5724 13.3759,-15.4021 8.0655,-9.5256 13.9036,-14.7665 25.0671,-22.5029 8.0041,-5.5469 18.0504,-11.8328 22.3249,-13.9689 4.2745,-2.136 13.9677,-5.9999 21.5404,-8.5863 7.5725,-2.5866 17.6684,-5.2877 22.4351,-6.0026 4.7666,-0.7148 13.3721,-1.6407 19.1232,-2.0575 8.5097,-0.6166 12.1664,-0.2181 19.6405,2.1408 5.0512,1.5942 9.4841,3.3842 9.8511,3.9777 0.3668,0.5935 4.1285,2.7662 8.3593,4.828 4.2309,2.062 10.7963,5.7269 14.5899,8.1444 3.7934,2.4175 10.4852,7.7173 14.8705,11.7774 4.3853,4.06 11.5356,12.6211 15.8895,19.0247 4.3538,6.4036 9.473,14.6428 11.376,18.3095 1.9029,3.6667 5.2989,10.9672 7.5466,16.2235 2.2476,5.2562 4.0867,10.1061 4.0867,10.7773 0,0.6713 1.7153,6.5708 3.8119,13.1099 2.0965,6.5391 4.833,18.1893 6.081,25.8893 1.248,7.7 3.223,17.8372 4.3887,22.5272 1.7569,7.0686 1.9643,13.0412 1.2121,34.9162 -0.499,14.5139 -1.4256,28.0767 -2.0589,30.1395 -0.6335,2.0627 -1.8693,9.7504 -2.7464,17.0838 -0.8771,7.3333 -2.5077,17.2333 -3.6236,22 -1.116,4.7666 -2.8093,10.4666 -3.7629,12.6666 -0.9538,2.2 -2.7767,7.3 -4.0512,11.3334 -1.2744,4.0333 -7.2154,16.9333 -13.2022,28.6666 -5.9868,11.7334 -13.6968,25.94137 -17.1334,31.57337 -3.4367,5.632 -6.2484,10.8361 -6.2484,11.5646 0,0.7284 -1.95,3.9534 -4.3334,7.1666 -2.3833,3.2132 -6.4333,9.8701 -9,14.7931 -2.5666,4.9229 -6.7945,11.4296 -9.3953,14.4592 -4.3127,5.0237 -5.1339,5.4319 -9.3333,4.6386 -2.5326,-0.4785 -6.4047,-2.0588 -8.6047,-3.5119 -2.2,-1.4531 -8.1656,-5.27 -13.2568,-8.4818 -5.7651,-3.637 -10.1659,-7.5348 -11.6667,-10.3333 -1.3254,-2.4715 -2.381,-5.4029 -2.3458,-6.5143 0.035,-1.1115 1.0852,-3.8984 2.3333,-6.1933 1.2481,-2.2949 5.7456,-9.9301 9.9944,-16.9672 4.2489,-7.0371 9.1135,-14.45947 10.8103,-16.49417 1.6968,-2.0347 5.1893,-7.5995 7.7612,-12.3661 2.5718,-4.7667 6.6321,-11.9667 9.0229,-16 2.3908,-4.0334 5.8587,-10.6334 7.7064,-14.6667 1.8477,-4.0333 5.4224,-13.0333 7.9437,-20 2.5214,-6.9667 5.2134,-15.0667 5.9822,-18 0.7689,-2.9333 2.5273,-9.2102 3.9077,-13.9485 1.3804,-4.7383 3.6639,-16.7383 5.0743,-26.6667 1.4105,-9.9283 2.9304,-22.5515 3.3776,-28.0515 0.4473,-5.5 0.213,-13.9 -0.5204,-18.6666 -0.7336,-4.7667 -2.5288,-14.4114 -3.9894,-21.4328 -1.5604,-7.501 -4.8853,-17.5032 -8.062,-24.2519 -2.9734,-6.3172 -5.4062,-11.7904 -5.4062,-12.1625 0,-0.3721 -2.0848,-4.2338 -4.633,-8.5816 -2.5481,-4.3477 -6.5981,-10.2336 -9,-13.0797 -2.4018,-2.8462 -7.4637,-8.0534 -11.2486,-11.5715 -4.0759,-3.7887 -9.7762,-7.4547 -13.9811,-8.9917 -4.9685,-1.816 -10.5255,-2.595 -18.5121,-2.595 -7.8132,0 -15.388,1.0336 -24.0188,3.2774 -6.9335,1.8025 -16.9723,5.4025 -22.3083,8 -5.3361,2.5974 -10.0683,4.7226 -10.516,4.7226 -0.4477,0 -5.2051,3.93 -10.5719,8.7333 -5.3669,4.8033 -13.7073,13.4684 -18.5343,19.2557 -5.4574,6.543 -10.6806,14.7116 -13.8116,21.6 -2.7694,6.0927 -5.8548,13.7777 -6.8566,17.0777 -1.0017,3.3 -2.2964,6.641 -2.8769,7.4246 -0.5805,0.7835 -2.2121,6.1835 -3.6257,12 -1.4136,5.8164 -2.969,11.5583 -3.4564,12.7597 -0.4875,1.2014 -1.7682,7.5014 -2.8459,14 -1.0778,6.4986 -2.8565,27.1157 -3.9527,45.8157 -1.5676,26.74 -1.7131,40.8328 -0.6812,66 1.0748,26.2181 2.1694,37.1131 6.058,60.29877 2.6104,15.5644 5.3372,29.8535 6.0596,31.7535 0.7224,1.9 1.3135,5.411 1.3135,7.8021 0,2.8051 -1.0643,5.3225 -3,7.096 -1.65,1.5118 -5.5261,4.0164 -8.6136,5.5658 -3.7816,1.8978 -8.1328,2.8164 -13.3333,2.815 -4.6775,0 -9.5589,-0.9208 -12.3864,-2.3333 z m 931.7367,0.2802 c -5.6446,-0.9516 -15.2117,-3.0129 -21.26,-4.5807 -6.0484,-1.5678 -16.43,-5.5428 -23.0702,-8.8333 -8.7987,-4.3601 -14.557,-8.4077 -21.2304,-14.9234 -5.0366,-4.9174 -11.7152,-12.8407 -14.8416,-17.6074 -3.1264,-4.7667 -8.8319,-15.2667 -12.6788,-23.3333 -3.8468,-8.06667 -7.8286,-18.56667 -8.8482,-23.33337 -1.0196,-4.7666 -2.8,-15.8666 -3.9564,-24.6666 -1.6324,-12.4225 -1.937,-23.006 -1.3624,-47.3334 0.4072,-17.2333 1.386,-36.1333 2.1752,-42 0.7892,-5.8666 2.3355,-15.4666 3.4362,-21.3333 1.1005,-5.8667 2.9494,-14.5667 4.1085,-19.3333 1.1592,-4.7667 3.9071,-14.0667 6.1064,-20.6667 2.1995,-6.6 7.9041,-19.4942 12.6773,-28.6538 4.7731,-9.1596 11.189,-19.9596 14.2575,-24 3.0685,-4.0404 7.5613,-10.3462 9.9839,-14.0129 2.4226,-3.6666 8.9281,-10.8666 14.4565,-16 5.5284,-5.1333 13.4752,-11.7333 17.6596,-14.6666 4.1843,-2.9334 9.6423,-6.9353 12.1289,-8.8932 2.4867,-1.9579 8.7727,-5.7159 13.969,-8.351 5.1961,-2.635 14.4961,-6.6303 20.6666,-8.8782 6.1704,-2.2479 14.819,-5.0416 19.219,-6.2081 5.7121,-1.5144 14.4822,-2.1517 30.6666,-2.2286 17.5012,-0.083 24.9456,0.4382 32.6667,2.2873 5.5,1.3173 13.3,3.6127 17.3333,5.101 4.0334,1.4884 9.4334,3.6036 12,4.7006 2.5667,1.0969 10.9667,5.068 18.6667,8.8247 7.7,3.7566 16.8159,8.9637 20.2575,11.5712 4.444,3.367 6.2768,5.7069 6.3245,8.0743 0.037,1.8333 -1.1365,5.1333 -2.6075,7.3333 -1.471,2.2 -4.556,8.05 -6.8553,13 -2.2993,4.95 -4.5968,9 -5.1056,9 -0.5087,0 -1.6533,2.4317 -2.5439,5.4038 -0.8904,2.9721 -2.5325,5.7544 -3.649,6.1829 -1.1426,0.4384 -4.6246,-1.0497 -7.9644,-3.4039 -3.2639,-2.3005 -6.2883,-4.1828 -6.7208,-4.1828 -0.4327,0 -4.1651,-2.035 -8.2944,-4.5223 -4.1292,-2.4872 -12.0078,-6.2942 -17.5078,-8.46 -5.5,-2.1658 -13.3,-4.9755 -17.3333,-6.2437 -5.654,-1.7778 -10.3867,-2.1628 -20.6667,-1.6812 -7.3333,0.3435 -17.7042,1.3416 -23.0465,2.2178 -5.3423,0.8763 -14.4997,3.4899 -20.3499,5.808 -6.8177,2.7015 -14.6844,7.3264 -21.9105,12.8814 -6.2008,4.7667 -11.2933,9.4473 -11.3169,10.4013 -0.024,0.9541 -2.0968,3.6541 -4.6072,6 -2.5106,2.346 -6.5606,6.7089 -9,9.6955 -2.4396,2.9866 -5.4767,6.8866 -6.7492,8.6667 -1.2726,1.7801 -3.6943,5.3365 -5.3818,7.9032 -1.6874,2.5666 -3.896,6.7666 -4.9078,9.3333 -1.012,2.5667 -3.7604,8.5667 -6.1076,13.3333 -2.3474,4.7667 -5.0187,10.7667 -5.9363,13.3334 -0.9177,2.5666 -2.7247,7.0666 -4.0153,10 -1.2907,2.9333 -3.3543,8.9333 -4.5858,13.3333 -1.2316,4.4 -3.4,11.6 -4.8186,16 -1.4188,4.4 -3.2348,14.3 -4.0355,22 -0.8008,7.7 -1.0805,20.6 -0.6217,28.6667 0.4588,8.0666 1.1694,17.0666 1.579,20 0.4096,2.9333 2.2291,9.7623 4.0432,15.1755 1.8142,5.4133 3.7986,10.8133 4.4099,12 0.6113,1.1868 3.3443,6.6578 6.0732,12.1578 2.7291,5.5 7.1347,12.2984 9.7903,15.1075 2.6556,2.8092 8.7646,7.41917 13.5756,10.24447 4.8108,2.8253 10.5108,5.5281 12.6666,6.0061 2.1558,0.478 6.1244,1.6951 8.8192,2.7046 2.695,1.0096 11.5243,2.554 19.6208,3.4321 11.4247,1.2392 18.9798,1.2399 33.7406,0 12.0228,-1.0073 20.1157,-2.3117 21.999,-3.5457 1.6387,-1.0737 4.1118,-1.9522 5.4958,-1.9522 1.384,0 4.5552,-1.4847 7.0469,-3.2993 2.4919,-1.8146 5.7601,-3.854 7.2631,-4.532 1.5029,-0.6779 6.3905,-4.86797 10.8614,-9.31117 4.4708,-4.4431 12.0538,-13.7081 16.8511,-20.5888 5.3831,-7.721 10.0392,-16.2796 12.1623,-22.3562 1.8918,-5.4152 3.7858,-12.8609 4.2088,-16.5458 0.7024,-6.1211 0.4412,-7.0086 -3.0236,-10.2719 -2.0859,-1.9645 -7.0926,-5.3417 -11.1259,-7.5048 -4.0333,-2.163 -18.1333,-9.4409 -31.3333,-16.173 -13.2,-6.732 -27.4556,-14.0452 -31.6791,-16.2514 -4.2235,-2.2062 -9.5097,-4.0633 -11.7472,-4.127 -2.2375,-0.064 -4.9321,0.7485 -5.9883,1.8046 -1.0561,1.0561 -4.0769,7.2984 -6.713,13.8718 -2.636,6.5734 -5.8784,14.3517 -7.2052,17.285 -1.3267,2.9334 -3.6696,8.2596 -5.2064,11.8362 -1.5368,3.5765 -2.7942,7.7801 -2.7942,9.3411 0,2.1407 1.7207,3.6019 7,5.9446 3.85,1.7085 10,4.4959 13.6667,6.1943 3.6667,1.6983 9.9667,4.5914 14,6.4291 4.0333,1.8376 10.1504,4.5967 13.5935,6.1313 3.4432,1.5345 6.906,2.7901 7.6953,2.7901 0.7892,0 2.0732,1.4006 2.8532,3.1125 1.1572,2.5398 0.6952,4.6865 -2.5105,11.6667 -2.1607,4.7048 -5.0751,9.8384 -6.4764,11.4081 l -2.5479,2.854 -11.9703,-3.002 c -6.5836,-1.6511 -15.5702,-4.635 -19.9702,-6.6309 -4.4,-1.996 -13.5916,-5.6685 -20.4259,-8.1613 -6.8343,-2.4927 -16.4343,-6.6082 -21.3333,-9.1455 -4.8991,-2.5373 -12.0575,-5.6172 -15.9075,-6.8442 -3.85,-1.2271 -7,-3.0166 -7,-3.9768 0,-0.9602 1.8263,-6.4411 4.0584,-12.1799 2.2321,-5.7387 6.4321,-15.081 9.3333,-20.7605 2.9012,-5.6796 5.275,-10.9885 5.275,-11.7976 0,-0.8092 3.8588,-9.161 8.5752,-18.5598 4.7162,-9.3988 9.4661,-19.6898 10.555,-22.8691 1.0888,-3.1792 4.2087,-10.5804 6.933,-16.447 2.7242,-5.8667 6.0745,-13.1061 7.4449,-16.0877 1.3705,-2.9815 2.4919,-6.1104 2.4919,-6.9531 0,-0.8426 1.196,-2.1722 2.6577,-2.9545 2.1507,-1.151 4.8857,-0.3734 14.3333,4.075 6.4216,3.0235 23.1634,11.1425 37.2039,18.0421 14.0405,6.8997 25.8935,12.5448 26.3399,12.5448 0.4464,0 3.6586,1.401 7.1384,3.1132 3.4797,1.7123 12.9268,6.9389 20.9934,11.6146 8.0667,4.6758 17.6667,9.7556 21.3334,11.2886 3.6666,1.533 10.8666,5.002 16,7.7089 5.1333,2.707 12.024,6.4262 15.3126,8.2649 3.2887,1.8387 6.7034,3.3432 7.588,3.3432 0.8848,0 2.0582,0.7272 2.6075,1.6161 0.5493,0.8889 0.8651,3.6012 0.7017,6.0273 -0.1633,2.4261 -2.109,9.3255 -4.3236,15.3318 -2.2146,6.0063 -4.5122,11.5441 -5.1058,12.306 -0.5938,0.762 -1.4604,2.9831 -1.9262,4.9359 -0.4657,1.9527 -3.6374,9.4527 -7.0484,16.6666 -3.4109,7.214 -9.1796,18.5163 -12.8193,25.1163 -3.6397,6.6 -8.9507,15.44317 -11.8021,19.65147 -2.8515,4.2084 -5.1844,8.121 -5.1844,8.6948 0,0.5737 -1.5063,2.5305 -3.3472,4.3483 -1.841,1.8179 -3.9319,3.9053 -4.6466,4.6387 -0.7146,0.7333 -2.7717,3.1762 -4.5712,5.4287 -1.7993,2.2524 -5.8584,5.8405 -9.02,7.9734 -3.1616,2.1329 -8.2366,6.0113 -11.278,8.6187 -3.0413,2.6074 -10.7077,7.3066 -17.0366,10.4427 -6.329,3.1361 -14.6406,6.626 -18.4704,7.7553 -3.8299,1.1293 -7.5634,2.4943 -8.2967,3.0334 -0.7333,0.539 -4.9333,2.2179 -9.3333,3.7309 -4.4,1.5129 -13.429,4.0106 -20.0644,5.5505 -8.751,2.0308 -16.0748,2.7551 -26.6667,2.6372 -8.0312,-0.089 -19.2207,-0.9412 -24.8655,-1.8927 z M 897.45657,1074.213 c 0,-0.3667 0.3,-0.6667 0.66667,-0.6667 0.36667,0 0.66667,0.3 0.66667,0.6667 0,0.3666 -0.3,0.6666 -0.66667,0.6666 -0.36667,0 -0.66667,-0.3 -0.66667,-0.6666 z m 6.66667,-6.6667 c 0,-0.3667 0.3,-0.6667 0.66667,-0.6667 0.36666,0 0.66666,0.3 0.66666,0.6667 0,0.3667 -0.3,0.6667 -0.66666,0.6667 -0.36667,0 -0.66667,-0.3 -0.66667,-0.6667 z m 975.33326,-6.4907 c -3.6667,-1.7222 -7.7833,-4.3873 -9.1481,-5.9223 -2.349,-2.6419 -2.4024,-4.1299 -1.0022,-27.8557 0.8136,-13.7855 2.0568,-31.96457 2.7627,-40.39797 0.7059,-8.4333 1.8948,-46.8333 2.6419,-85.3333 0.7472,-38.5 1.2998,-85.3 1.2281,-104 -0.104,-27.2487 0.2616,-34.9266 1.8429,-38.6667 1.0854,-2.5666 3.1062,-5.6565 4.4907,-6.8663 1.3845,-1.2098 7.5887,-3.2241 13.7868,-4.4761 6.222,-1.2568 14.4544,-2.0123 18.3803,-1.6867 3.9109,0.3243 7.5609,1.1385 8.1112,1.8094 0.5501,0.6709 0.5761,19.5197 0.057,41.8864 -0.5185,22.3667 -0.9457,79.6667 -0.9492,127.3333 0,47.6667 -0.4288,97.46667 -0.9452,110.66667 -0.7131,18.2273 -1.4513,24.8888 -3.0691,27.695 -1.1714,2.0322 -4.5825,4.8822 -7.5801,6.3333 -3.8368,1.8574 -8.1869,2.6345 -14.6957,2.6254 -6.9018,-0.01 -10.9359,-0.8069 -15.9124,-3.1444 z m -218.4216,-0.1077 c -2.7985,-0.9981 -6.3679,-2.9218 -7.9317,-4.2748 -1.564,-1.3531 -4.8243,-4.3901 -7.2451,-6.749 -2.9116,-2.8371 -4.3972,-5.5452 -4.3885,-8 0.013,-2.0411 1.3892,-6.7111 3.0712,-10.3778 1.682,-3.6667 4.6608,-11.7667 6.6197,-18 1.9588,-6.2334 5.6109,-18.53337 8.1156,-27.33337 2.5048,-8.8 5.488,-22 6.6292,-29.3333 1.1413,-7.3333 2.7091,-17.8333 3.4839,-23.3333 0.7748,-5.5 2.0798,-17.8 2.9001,-27.3334 0.8876,-10.315 1.1972,-30.2901 0.7648,-49.3333 -0.3997,-17.6 -1.3932,-35.9 -2.2076,-40.6667 -0.8145,-4.7666 -2.6777,-16.7666 -4.1404,-26.6666 -1.4627,-9.9 -3.5377,-24.5588 -4.6111,-32.5751 -1.0734,-8.0163 -3.509,-20.9163 -5.4124,-28.6667 -1.9034,-7.7503 -4.9257,-18.8287 -6.7162,-24.6186 -2.6591,-8.5986 -2.9983,-11.3063 -1.8519,-14.7801 0.772,-2.3391 3.208,-5.9817 5.4133,-8.0945 3.3491,-3.2086 5.0094,-3.798 10.0778,-3.5774 3.6174,0.1575 8.6889,1.6906 12.558,3.7964 3.5693,1.9427 7.7188,4.8404 9.2209,6.4393 1.5021,1.5989 4.6071,6.4703 6.9001,10.8253 2.293,4.3549 5.2778,10.1042 6.633,12.7761 1.3552,2.672 3.1016,7.772 3.8809,11.3333 0.7793,3.5614 2.2251,8.2753 3.2128,10.4753 0.9877,2.2 2.5219,8.2 3.4092,13.3333 0.8873,5.1334 2.4429,12.3334 3.4569,16 1.014,3.6667 2.5435,12.9667 3.3988,20.6667 0.8554,7.7 1.9208,19.9178 2.3678,27.1507 0.8093,13.0994 0.8225,13.1397 3.379,10.304 1.4116,-1.5657 5.6116,-7.2556 9.3334,-12.6442 3.7217,-5.3887 10.1366,-14.2255 14.2553,-19.6374 4.1187,-5.4118 12.2187,-14.4546 18,-20.0951 5.7813,-5.6404 13.492,-12.5404 17.1348,-15.3333 3.6428,-2.7929 11.7372,-9.128 17.9875,-14.078 6.2502,-4.95 12.1198,-9 13.0433,-9 0.9236,0 1.6792,-0.6188 1.6792,-1.3752 0,-0.7564 1.05,-1.7658 2.3333,-2.2433 1.2834,-0.4775 3.966,-2.0586 5.9615,-3.5137 2.2871,-1.6678 5.7367,-2.6415 9.3333,-2.6345 3.1379,0.01 8.1052,1.2483 11.0386,2.7605 2.9333,1.5122 6.9144,4.1572 8.8466,5.8778 1.9324,1.7206 5.0824,6.1236 7,9.7844 2.1183,4.0438 3.47,8.7534 3.4443,12 -0.023,2.9392 -0.7733,6.2911 -1.6667,7.4486 -0.8933,1.1576 -6.4242,4.5973 -12.2909,7.6439 -5.8667,3.0465 -13.6667,8.1482 -17.3333,11.3371 -3.6667,3.1888 -10.1759,8.0295 -14.4648,10.757 -4.289,2.7275 -11.5348,8.6787 -16.102,13.2249 -4.5671,4.5462 -11.5579,11.2772 -15.5351,14.9579 -3.9773,3.6806 -10.2315,10.243 -13.8981,14.5831 -3.6667,4.3401 -7.6438,9.4287 -8.8379,11.308 -1.1941,1.8792 -4.1051,5.5168 -6.4687,8.0835 -2.3636,2.5666 -6.4613,7.2807 -9.106,10.4756 -2.6448,3.195 -7.906,10.9949 -11.6917,17.3333 -3.7856,6.3384 -6.6055,12.2517 -6.2661,13.1407 0.3393,0.8889 4.7346,4.985 9.7672,9.1023 5.0326,4.1174 14.6542,13.2434 21.3813,20.28 6.7271,7.0367 17.7544,19.7406 24.5052,28.231 6.7508,8.4904 16.7148,22.0371 22.1421,30.1037 5.4275,8.0667 15.1752,25.11577 21.6618,37.88687 9.8025,19.3001 11.6601,23.9315 11.0033,27.4332 -0.4348,2.317 -2.4329,5.7115 -4.4405,7.5433 -2.0075,1.8317 -8.5227,4.9368 -14.4783,6.9002 -5.9556,1.9634 -11.9556,3.5675 -13.3333,3.5648 -1.3778,0 -4.4674,-1.2014 -6.8656,-2.6636 -2.3983,-1.4622 -5.0363,-4.31 -5.8622,-6.3283 -0.8258,-2.0184 -3.2813,-7.5698 -5.4568,-12.3364 -2.1754,-4.7667 -6.093,-11.9667 -8.7057,-16 -2.6128,-4.0334 -9.7391,-13.9334 -15.8361,-22.0001 -6.0972,-8.06657 -13.0416,-17.19077 -15.4322,-20.27597 -2.3906,-3.0851 -6.898,-9.1682 -10.0164,-13.518 -3.1185,-4.3498 -9.886,-11.358 -15.039,-15.5739 -5.153,-4.2158 -9.6175,-7.4167 -9.9211,-7.1132 -0.3036,0.3036 -1.1959,6.8361 -1.9828,14.5166 -0.7869,7.6805 -2.3472,17.2645 -3.4673,21.2979 -1.1202,4.0333 -3.1718,13.3333 -4.5594,20.66657 -1.3874,7.3334 -3.5006,16.9334 -4.6958,21.3334 -1.1954,4.4 -3.9502,13.8192 -6.1219,20.9317 -2.8923,9.4726 -4.8785,13.6632 -7.4255,15.6666 -2.5973,2.0432 -5.3709,2.7202 -10.9638,2.6765 -4.1178,-0.032 -9.7766,-0.8751 -12.5751,-1.8732 z m -750.24499,-0.068 c 0,-0.3666 0.3,-0.6666 0.66666,-0.6666 0.36667,0 0.66667,0.3 0.66667,0.6666 0,0.3667 -0.3,0.6667 -0.66667,0.6667 -0.36666,0 -0.66666,-0.3 -0.66666,-0.6667 z m 4,-4 c 0,-0.3666 0.3,-0.6666 0.66666,-0.6666 0.36667,0 0.66667,0.3 0.66667,0.6666 0,0.3667 -0.3,0.6667 -0.66667,0.6667 -0.36666,0 -0.66666,-0.3 -0.66666,-0.6667 z m 1213.33329,-6.5078 c -4.0334,-0.8895 -8.6416,-2.338 -10.2407,-3.2189 -1.5989,-0.8808 -4.1489,-3.3453 -5.6667,-5.4767 -1.5176,-2.1313 -2.7593,-5.8991 -2.7593,-8.3727 0,-2.4736 0.8233,-5.681 1.8296,-7.1275 1.0063,-1.4465 2.2869,-4.7298 2.8457,-7.2962 0.5588,-2.5664 2.0927,-7.0664 3.4084,-10 1.3158,-2.9336 3.3804,-9.23377 4.588,-14.00047 1.2078,-4.7666 3.0483,-16.4666 4.0904,-26 1.042,-9.5333 1.986,-28.1333 2.0978,-41.3333 0.112,-13.2 -0.4784,-34.6579 -1.3115,-47.6841 -0.9059,-14.1629 -2.6597,-28.6353 -4.3627,-36 -1.5662,-6.7738 -4.5389,-17.1159 -6.6058,-22.9826 -2.067,-5.8666 -5.0063,-13.858 -6.5319,-17.7585 -1.5255,-3.9006 -3.7649,-8.7006 -4.9764,-10.6667 -1.2115,-1.9661 -4.1781,-6.6462 -6.5925,-10.4002 -2.4146,-3.754 -7.7584,-9.904 -11.8754,-13.6667 l -7.4853,-6.8412 h -10.6599 c -10.0409,0 -11.1766,0.3075 -19.5592,5.2952 -4.8946,2.9123 -10.1621,6.3623 -11.7054,7.6667 -1.5434,1.3043 -4.6136,5.0714 -6.8228,8.3714 -2.2091,3.3 -5.8276,9.6 -8.0412,14 -2.2135,4.4 -5.3662,12.5 -7.0056,18 -1.6396,5.5 -4.4207,16.9 -6.1803,25.3334 -1.7595,8.4333 -4.082,21.5681 -5.1609,29.1884 -1.079,7.6203 -2.5632,16.0203 -3.2983,18.6667 -0.7352,2.6463 -1.3296,15.9115 -1.3209,29.4782 0.013,13.5667 0.622,30.3667 1.363,37.3333 0.7411,6.9667 2.2164,21.2508 3.2784,31.7425 1.062,10.4916 2.3183,19.70247 2.7918,20.46857 0.4734,0.7661 1.3696,5.9296 1.9914,11.4746 0.9028,8.0502 0.72,10.947 -0.9073,14.3763 -1.5619,3.2916 -3.76,4.9536 -9.4115,7.1163 -5.3589,2.0507 -10.3836,2.8217 -18.3894,2.8217 -6.0586,0 -12.9235,-0.665 -15.2552,-1.4778 -2.3378,-0.815 -5.1007,-3.1435 -6.1596,-5.1911 -1.1215,-2.1687 -2.4622,-11.1204 -3.2234,-21.5221 -0.7166,-9.7949 -2.0388,-27.80177 -2.9378,-40.01517 -1.3212,-17.9464 -1.2715,-35.5949 0.2593,-92 1.0417,-38.3866 1.9044,-84.1938 1.9172,-101.7938 0.013,-17.6 0.5152,-32.7743 1.1167,-33.7207 0.6013,-0.9463 3.2929,-3.0795 5.9813,-4.7404 2.6883,-1.6608 7.4343,-3.7595 10.5467,-4.6638 3.7402,-1.0867 6.4524,-1.2118 8,-0.369 1.2876,0.7013 4.4089,3.4243 6.9361,6.0512 2.5272,2.6268 5.2272,4.7649 6,4.7513 0.7728,-0.014 7.4024,-5.8143 14.7325,-12.8904 8.4407,-8.148 15.81,-14.0021 20.0976,-15.965 3.7235,-1.7047 9.7262,-3.6517 13.3392,-4.3268 3.613,-0.6751 13.1691,-1.6453 21.2358,-2.1561 9.366,-0.5931 18.4393,-0.3553 25.1056,0.6578 5.7413,0.8725 12.6413,2.8443 15.3333,4.3818 2.6919,1.5374 8.8888,6.0117 13.7709,9.943 4.882,3.9312 11.2602,9.7336 14.1736,12.8944 2.9135,3.1607 8.5811,10.1881 12.5947,15.6164 4.0136,5.4283 8.9339,13.4697 10.9339,17.8697 2,4.4 4.17,9.2 4.822,10.6666 0.6521,1.4667 2.9221,7.1667 5.0446,12.6667 2.1226,5.5 5.0791,14.2 6.5702,19.3333 1.491,5.1334 3.7698,14.7334 5.0641,21.3334 1.2943,6.6 2.7552,16.2 3.2464,21.3333 0.4912,5.1333 0.6544,23.7333 0.3628,41.3333 -0.2917,17.6 -1.0993,38.3 -1.7948,46 -0.6956,7.7 -2.0771,20 -3.0701,27.3334 -0.993,7.3333 -2.533,18.1333 -3.422,24 -0.8891,5.86657 -2.4908,15.46657 -3.5594,21.33327 -1.0685,5.8667 -2.6701,14.8499 -3.5593,19.9628 -1.3455,7.7375 -2.1755,9.5784 -4.9499,10.9803 -1.8657,0.9427 -7.7361,1.6437 -13.3333,1.5922 -5.5,-0.051 -13.3,-0.8199 -17.3333,-1.7095 z m -1203.99996,-2.8258 c 0,-0.3667 0.3,-0.6667 0.66667,-0.6667 0.36666,0 0.66666,0.3 0.66666,0.6667 0,0.3667 -0.3,0.6667 -0.66666,0.6667 -0.36667,0 -0.66667,-0.3 -0.66667,-0.6667 z m 327.99996,-9.3333 c 0,-0.3667 0.3,-0.6667 0.6667,-0.6667 0.3666,0 0.6666,0.3 0.6666,0.6667 0,0.3666 -0.3,0.6666 -0.6666,0.6666 -0.3667,0 -0.6667,-0.3 -0.6667,-0.6666 z m -295.99996,-16 c 0,-0.3667 0.3,-0.6667 0.66667,-0.6667 0.36666,0 0.66666,0.3 0.66666,0.6667 0,0.3666 -0.3,0.6666 -0.66666,0.6666 -0.36667,0 -0.66667,-0.3 -0.66667,-0.6666 z m 2.66667,-1.3334 c 0,-0.3666 0.3,-0.6666 0.66666,-0.6666 0.36667,0 0.66667,0.3 0.66667,0.6666 0,0.3667 -0.3,0.6667 -0.66667,0.6667 -0.36666,0 -0.66666,-0.3 -0.66666,-0.6667 z m 12,-6.6666 c 0,-0.3667 0.3,-0.6667 0.66666,-0.6667 0.36667,0 0.66667,0.3 0.66667,0.6667 0,0.3666 -0.3,0.6666 -0.66667,0.6666 -0.36666,0 -0.66666,-0.3 -0.66666,-0.6666 z m 657.33329,-31.99997 c 0,-0.3667 0.3,-0.6667 0.6666,-0.6667 0.3667,0 0.6667,0.3 0.6667,0.6667 0,0.3666 -0.3,0.6666 -0.6667,0.6666 -0.3666,0 -0.6666,-0.3 -0.6666,-0.6666 z m 1.3333,-2.6667 c 0,-0.3667 0.3,-0.6667 0.6667,-0.6667 0.3666,0 0.6666,0.3 0.6666,0.6667 0,0.3667 -0.3,0.6667 -0.6666,0.6667 -0.3667,0 -0.6667,-0.3 -0.6667,-0.6667 z m -310.6666,-236.586 c -2.5667,-0.5202 -7.1412,-2.2249 -10.1657,-3.7882 -3.0244,-1.5632 -7.0235,-4.6541 -8.887,-6.8687 -1.8635,-2.2146 -3.7851,-5.834 -4.2703,-8.0432 -0.4852,-2.2092 -1.436,-4.3589 -2.113,-4.7773 -0.6769,-0.4184 -1.2307,-5.4056 -1.2307,-11.0828 0,-5.6772 0.7212,-11.8504 1.6027,-13.7182 0.8814,-1.8678 3.4314,-4.5003 5.6666,-5.85 2.2352,-1.3497 6.164,-3.265 8.7307,-4.2562 3.1248,-1.2068 7.5427,-1.5474 13.3715,-1.0308 4.7876,0.4242 12.1234,1.566 16.3016,2.5373 4.1783,0.9713 9.701,3.3709 12.2727,5.3324 3.489,2.6611 5.2222,5.446 6.8285,10.9712 1.9851,6.8288 1.9826,8.2486 -0.033,18.2509 -1.6692,8.2837 -3.0386,11.6782 -5.7968,14.3686 -1.9863,1.9374 -6.0025,4.8018 -8.925,6.3651 -3.5845,1.9176 -7.4894,2.7927 -12,2.6892 -3.6775,-0.084 -8.7864,-0.579 -11.3531,-1.0993 z m -26.1274,-10.9533 c -0.5894,-0.9538 -0.3657,-1.1775 0.588,-0.588 0.8466,0.5232 1.5394,1.2159 1.5394,1.5393 0,0.3234 -0.2646,0.588 -0.588,0.588 -0.3234,0 -1.0161,-0.6927 -1.5394,-1.5393 z M 1280.1232,194.213 c 0,-0.3666 0.3,-0.6666 0.6667,-0.6666 0.3666,0 0.6666,0.3 0.6666,0.6666 0,0.3667 -0.3,0.6667 -0.6666,0.6667 -0.3667,0 -0.6667,-0.3 -0.6667,-0.6667 z"
       id="path274" />
  </g>
</svg>
